<svg width="20" height="23" viewBox="0 0 20 23" fill="none" xmlns="http://www.w3.org/2000/svg">
<g clip-path="url(#clip0_523_15063)">
<path d="M5 13.8494H15V11.3494H5V13.8494ZM15 6.34937H5V8.84937H15V6.34937ZM20 16.3494V2.59937C20 2.27106 19.9353 1.94597 19.8097 1.64266C19.6841 1.33934 19.4999 1.06374 19.2678 0.831598C19.0356 0.599452 18.76 0.415303 18.4567 0.289666C18.1534 0.16403 17.8283 0.0993652 17.5 0.0993652H2.5C1.83696 0.0993652 1.20107 0.362757 0.732233 0.831598C0.263392 1.30044 0 1.93632 0 2.59937V20.0994C0 20.7624 0.263392 21.3983 0.732233 21.8671C1.20107 22.336 1.83696 22.5994 2.5 22.5994H13.75V20.0994H2.5V2.59937H17.5V16.3494H15.625C15.1277 16.3494 14.6508 16.5469 14.2992 16.8985C13.9475 17.2502 13.75 17.7271 13.75 18.2244V22.5994L20 16.3494Z" fill="#3868E3"/>
</g>
<defs>
<clipPath id="clip0_523_15063">
<rect width="20" height="22.7778" fill="white"/>
</clipPath>
</defs>
</svg>
