<svg width="30" height="30" viewBox="0 0 30 30" fill="none" xmlns="http://www.w3.org/2000/svg">
<path d="M18.09 18.99C17.49 18.72 16.8 19.02 16.56 19.59C16.29 20.19 16.59 20.88 17.16 21.12C18.57 21.72 19.44 22.56 19.44 23.28C19.44 24.6 16.47 26.46 11.67 26.46C6.86997 26.46 3.89997 24.63 3.89997 23.31C3.89997 22.62 4.64997 21.87 5.93997 21.27C6.50997 21 6.77997 20.31 6.47997 19.71C6.20997 19.14 5.51997 18.87 4.91997 19.17C2.75997 20.19 1.58997 21.66 1.58997 23.31C1.58997 26.46 5.93996 28.83 11.7 28.83C17.46 28.83 21.81 26.46 21.81 23.31C21.78 21.6 20.43 20.01 18.09 18.99Z" fill="#F0B995"/>
<path d="M28.3801 5.87997C28.2601 5.48997 27.9601 5.21997 27.6001 5.09997L14.1601 1.22997C13.8301 1.13997 13.5001 1.16997 13.2001 1.37997C12.9301 1.55997 12.7201 1.88997 12.6901 2.21997L12.2401 5.99997L11.5501 11.91L11.3401 13.74L10.3201 22.62C10.2601 23.25 10.7101 23.85 11.3401 23.91H11.4601C12.0301 23.91 12.5401 23.46 12.6301 22.89L13.5001 15.3L24.6301 17.76C24.7201 17.79 24.8101 17.79 24.8701 17.79C25.1701 17.79 25.5001 17.67 25.7101 17.43C25.9801 17.13 26.1001 16.71 25.9801 16.32L24.5701 11.1L28.0801 6.98997C28.4101 6.65997 28.5001 6.23997 28.3801 5.87997ZM22.4701 10.02C22.2301 10.32 22.1401 10.71 22.2301 11.07L23.2801 15.03L13.8001 12.93L14.8501 3.83997L25.2001 6.80997L22.4701 10.02Z" fill="#62D1CF"/>
</svg>
