<svg width="70" height="70" viewBox="0 0 70 70" fill="none" xmlns="http://www.w3.org/2000/svg">
<circle cx="35.001" cy="35" r="35" fill="#1E84FD" fill-opacity="0.18"/>
<circle cx="35.2589" cy="35.2599" r="25.9259" fill="#1E84FD" fill-opacity="0.2"/>
<path fill-rule="evenodd" clip-rule="evenodd" d="M44.286 53.9356C51.2184 50.5788 55.9991 43.4764 55.9991 35.2573C55.9991 23.8025 46.7131 14.5166 35.2583 14.5166C23.8035 14.5166 14.5176 23.8025 14.5176 35.2573C14.5176 43.5989 19.4419 50.7903 26.5421 54.0832C30.3756 56.5346 33.5432 59.266 34.843 60.436C35.1987 60.7561 35.7468 60.747 36.0925 60.4161C37.348 59.2145 40.4177 56.4229 44.286 53.9356Z" fill="white"/>
<rect x="17.6299" y="17.6279" width="35.2593" height="35.2593" rx="17.6296" fill="url(#paint0_linear_370_5001)"/>
<path opacity="0.9" fill-rule="evenodd" clip-rule="evenodd" d="M31.471 26.3853C33.2035 25.6396 35.1166 25.4183 36.9736 25.7488C42.245 26.6783 45.7638 31.7043 44.8344 36.9749C43.9049 42.2455 38.8789 45.7651 33.6082 44.8356C28.3376 43.9061 24.818 38.8801 25.7475 33.6095C26.1611 31.2439 27.4415 29.1173 29.3386 27.6449C29.2895 28.3347 29.2755 29.1737 29.2951 30.1656C28.3781 31.2363 27.7662 32.5341 27.5238 33.9228C27.4135 34.5479 27.3801 35.1688 27.4167 35.7757C27.5549 35.8065 27.694 35.8342 27.8341 35.8587C29.4894 36.1507 31.1193 35.9819 32.5922 35.4444C31.5972 33.507 31.0859 31.2651 31.0153 28.7294C30.9971 28.7552 30.9824 28.7646 30.9796 28.7279C30.941 28.2232 30.9291 27.0014 30.9796 26.6663L31.471 26.3853ZM32.7606 27.8195C32.7235 30.4767 33.1713 32.7622 34.1752 34.6894C36.39 33.3624 38.0384 31.118 38.5219 28.3758C38.5374 28.2885 38.5516 28.2011 38.5646 28.1136C37.9707 27.8433 37.3333 27.6429 36.661 27.5243C35.3471 27.2907 34.0059 27.3971 32.7606 27.8195ZM33.5186 36.9665C31.7473 37.6778 29.7695 37.9358 27.7539 37.6224C28.6009 40.355 30.9101 42.5291 33.9216 43.0601C33.9785 43.0701 34.0355 43.0795 34.0924 43.0883C34.735 41.9257 35.53 40.8556 36.4554 39.906C35.2786 39.0465 34.303 38.0658 33.5186 36.9665ZM37.7828 38.6993C36.7129 37.9613 35.8261 37.1196 35.111 36.172C37.6176 34.6572 39.509 32.1528 40.168 29.0907C42.1998 30.6912 43.3821 33.2462 43.1516 35.9516C41.1945 36.4903 39.3669 37.425 37.7828 38.6993ZM37.9624 40.8776C37.2602 41.5599 36.6366 42.3188 36.1035 43.1399C37.4407 43.0021 38.7004 42.5241 39.776 41.7805C39.1341 41.5016 38.5298 41.2006 37.9624 40.8776ZM41.2313 40.4829C40.5818 40.232 39.9728 39.9597 39.4034 39.666C40.4241 38.9261 41.5445 38.3386 42.7292 37.9199C42.3911 38.8807 41.8771 39.7453 41.2313 40.4829Z" fill="#2566E5"/>
<defs>
<linearGradient id="paint0_linear_370_5001" x1="35.2595" y1="17.6279" x2="35.2595" y2="52.8872" gradientUnits="userSpaceOnUse">
<stop stop-color="#C9DAF9"/>
<stop offset="0.285" stop-color="#E0E9FB"/>
<stop offset="0.51" stop-color="#E7EEFC"/>
<stop offset="0.83" stop-color="#FBFCFE"/>
<stop offset="1" stop-color="white"/>
</linearGradient>
</defs>
</svg>
