<svg width="70" height="70" viewBox="0 0 70 70" fill="none" xmlns="http://www.w3.org/2000/svg">
<circle cx="35" cy="35" r="35" fill="#1E84FD" fill-opacity="0.18"/>
<circle cx="35.2589" cy="35.2589" r="25.9259" fill="#1E84FD" fill-opacity="0.2"/>
<path fill-rule="evenodd" clip-rule="evenodd" d="M44.2846 53.9372C51.2177 50.5808 55.9991 43.4779 55.9991 35.2583C55.9991 23.8035 46.7131 14.5176 35.2583 14.5176C23.8035 14.5176 14.5176 23.8035 14.5176 35.2583C14.5176 43.595 19.4361 50.7829 26.5296 54.0784C30.3679 56.5316 33.5402 59.2669 34.8411 60.4379C35.1968 60.7581 35.7449 60.7489 36.0906 60.4181C37.3462 59.2164 40.4161 56.4247 44.2846 53.9372Z" fill="white"/>
<rect x="17.6289" y="17.6299" width="35.2593" height="35.2593" rx="17.6296" fill="url(#paint0_linear_370_5004)"/>
<path d="M42.8886 29.0491L39.2993 32.6383M42.8886 29.0491C42.8886 29.0491 43.4882 27.662 43.1647 27.3925C42.9081 27.1787 42.0164 27.304 41.6585 27.365C41.5595 27.3819 41.469 27.4283 41.395 27.4961L38.1923 30.4295C36.5694 32.0524 35.5391 33.3347 35.9161 35.118C35.9531 35.2927 35.8912 35.4943 35.7649 35.6205V35.6205C35.5729 35.8125 35.2783 35.7958 35.0863 35.6038L26.6582 27.1757C26.3185 26.836 25.7419 27.0662 25.7404 27.5466C25.718 34.5911 28.3537 36.4674 31.6686 37.027C31.7844 37.0466 31.8924 37.1008 31.9755 37.1839C32.2195 37.4279 32.4053 37.6138 32.5628 37.7717C32.7769 37.9865 32.7769 38.3326 32.5621 38.5466C31.5882 39.5169 29.2715 41.8172 28.3434 42.7385C28.1256 42.9548 28.1271 43.3061 28.3453 43.5219L30.0458 45.2035C30.2609 45.4161 30.607 45.4162 30.8222 45.2037L35.0756 41.0019C35.2798 40.8002 35.6044 40.7885 35.8225 40.975L40.5467 45.0142C40.7755 45.2098 41.1187 45.1862 41.3185 44.9611L42.7911 43.3024C42.9963 43.0713 42.9719 42.7168 42.7369 42.516L38.0253 38.4894C37.8179 38.3122 37.788 38.0142 37.9803 37.8207V37.8207C38.0996 37.7007 38.2929 37.6399 38.4595 37.6703C40.3237 38.0104 42.3322 36.4665 42.8859 35.6754L46.0552 32.2448C46.1494 32.1428 46.2018 32.009 46.2018 31.8701V31.0814C46.2018 30.7402 45.8954 30.4806 45.5588 30.5367L44.5452 30.7056M42.8886 29.0491L44.0924 28.8771C44.4569 28.825 44.7692 29.1374 44.7172 29.5018L44.5452 30.7056M44.5452 30.7056L40.9559 34.2949" stroke="#2566E5" stroke-width="1.43571" stroke-linecap="round"/>
<defs>
<linearGradient id="paint0_linear_370_5004" x1="35.2585" y1="17.6299" x2="35.2585" y2="52.8891" gradientUnits="userSpaceOnUse">
<stop stop-color="#C9DAF9"/>
<stop offset="0.285" stop-color="#E0E9FB"/>
<stop offset="0.51" stop-color="#E7EEFC"/>
<stop offset="0.83" stop-color="#FBFCFE"/>
<stop offset="1" stop-color="white"/>
</linearGradient>
</defs>
</svg>
