<svg width="93" height="53" viewBox="0 0 93 53" fill="none" xmlns="http://www.w3.org/2000/svg">
<path d="M37.9925 39.5544H12.3832C11.1782 39.5544 10.6853 42.0858 11.7406 42.6674C17.5551 45.8722 22.6667 50.2645 24.525 51.9372C24.9424 52.3129 25.5857 52.3022 25.9914 51.9139C27.7764 50.2055 32.6861 45.7588 38.6012 42.5257C39.6526 41.951 39.1907 39.5544 37.9925 39.5544Z" fill="#4573E7"/>
<rect width="92.5569" height="45.4013" rx="22.7007" fill="url(#paint0_linear_674_33800)"/>
<rect x="4.86819" y="4.86823" width="82.8205" height="35.6649" rx="17.8325" fill="#D6DFF5"/>
<path d="M36.6311 32.9316H17.8745C17.6484 32.9316 17.4316 32.8417 17.2717 32.6818C17.1118 32.5219 17.022 32.3051 17.022 32.079C17.022 31.8529 17.1118 31.6361 17.2717 31.4762C17.4316 31.3163 17.6484 31.2265 17.8745 31.2264H18.7271V15.0275C18.7271 14.3492 18.9965 13.6986 19.4762 13.2189C19.9559 12.7393 20.6064 12.4698 21.2848 12.4698H27.3295C28.0079 12.4698 28.6585 12.7393 29.1381 13.2189C29.6178 13.6986 29.8873 14.3492 29.8873 15.0275V19.5035L33.9285 20.6716C34.4613 20.825 34.9299 21.1474 35.2636 21.5903C35.5973 22.0331 35.778 22.5725 35.7786 23.127V31.2264H36.6311C36.8572 31.2265 37.074 31.3163 37.2339 31.4762C37.3938 31.6361 37.4836 31.8529 37.4836 32.079C37.4836 32.3051 37.3938 32.5219 37.2339 32.6818C37.074 32.8417 36.8572 32.9316 36.6311 32.9316ZM29.8873 31.2264H34.0734V23.127C34.081 22.9367 34.0246 22.7494 33.9134 22.5949C33.8021 22.4404 33.6424 22.3276 33.4595 22.2744L29.8873 21.2428V24.2183H31.5924C31.8185 24.2183 32.0353 24.3081 32.1952 24.468C32.355 24.6279 32.4449 24.8448 32.4449 25.0708C32.4449 25.2969 32.355 25.5138 32.1952 25.6737C32.0353 25.8335 31.8185 25.9234 31.5924 25.9234H29.8873V27.3643H31.5924C31.8185 27.3643 32.0353 27.4541 32.1952 27.614C32.355 27.7739 32.4449 27.9908 32.4449 28.2168C32.4449 28.4429 32.355 28.6598 32.1952 28.8197C32.0353 28.9795 31.8185 29.0694 31.5924 29.0694H29.8873V31.2264ZM26.8691 31.2264H28.1821V15.0275C28.1821 14.8014 28.0923 14.5845 27.9324 14.4247C27.7725 14.2648 27.5557 14.1749 27.3295 14.1749H21.2848C21.0587 14.1749 20.8418 14.2648 20.6819 14.4247C20.522 14.5845 20.4322 14.8014 20.4322 15.0275V31.2264H21.7537V27.8161C21.7537 27.59 21.8435 27.3732 22.0034 27.2133C22.1633 27.0534 22.3802 26.9636 22.6063 26.9636H26.0166C26.1285 26.9636 26.2394 26.9856 26.3428 27.0285C26.4463 27.0713 26.5403 27.1341 26.6194 27.2133C26.6986 27.2924 26.7614 27.3864 26.8042 27.4899C26.8471 27.5933 26.8691 27.7042 26.8691 27.8161V31.2264ZM23.4588 31.2264H25.164V28.6687H23.4588V31.2264ZM26.0166 24.8321H22.6063C22.3802 24.8321 22.1633 24.7423 22.0034 24.5824C21.8435 24.4225 21.7537 24.2057 21.7537 23.9795C21.7537 23.7534 21.8435 23.5366 22.0034 23.3767C22.1633 23.2168 22.3802 23.127 22.6063 23.127H26.0166C26.2427 23.127 26.4595 23.2168 26.6194 23.3767C26.7793 23.5366 26.8691 23.7534 26.8691 23.9795C26.8691 24.2057 26.7793 24.4225 26.6194 24.5824C26.4595 24.7423 26.2427 24.8321 26.0166 24.8321ZM26.0166 21.4218H22.6063C22.3802 21.4218 22.1634 21.332 22.0035 21.1721C21.8436 21.0122 21.7538 20.7953 21.7538 20.5693C21.7538 20.3432 21.8436 20.1263 22.0035 19.9664C22.1634 19.8065 22.3802 19.7167 22.6063 19.7167H26.0166C26.2427 19.7167 26.4595 19.8065 26.6193 19.9664C26.7792 20.1263 26.869 20.3432 26.869 20.5693C26.869 20.7953 26.7792 21.0122 26.6193 21.1721C26.4595 21.332 26.2427 21.4218 26.0166 21.4218ZM26.0166 18.0115H22.6063C22.3802 18.0115 22.1634 17.9217 22.0035 17.7618C21.8436 17.6019 21.7538 17.385 21.7538 17.159C21.7538 16.9329 21.8436 16.716 22.0035 16.5561C22.1634 16.3962 22.3802 16.3064 22.6063 16.3064H26.0166C26.2427 16.3064 26.4595 16.3962 26.6193 16.5561C26.7792 16.716 26.869 16.9329 26.869 17.159C26.869 17.385 26.7792 17.6019 26.6193 17.7618C26.4595 17.9217 26.2427 18.0115 26.0166 18.0115Z" fill="#2566E5"/>
<path d="M52.6646 18.2749C52.9572 18.6576 53.2911 19.0252 53.6662 19.3778C54.0488 19.7304 54.4877 20.0868 54.9829 20.4469L54.2626 21.5272C53.3323 20.8145 52.5671 20.0643 51.9669 19.2765C51.6518 19.6591 51.2955 20.0343 50.8978 20.4019C50.5077 20.7695 50.0576 21.1446 49.5474 21.5272L48.8159 20.5594C49.3786 20.1768 49.8663 19.8092 50.2789 19.4566C50.6915 19.0965 51.0479 18.7213 51.348 18.3312C50.9428 17.611 50.6465 16.8345 50.4589 16.0017C50.4064 16.0843 50.3539 16.163 50.3014 16.2381C50.2564 16.3131 50.2039 16.3919 50.1438 16.4744L49.4461 15.6641C49.4836 15.6116 49.5174 15.5591 49.5474 15.5066C49.5774 15.4541 49.6112 15.3978 49.6487 15.3378H48.242C48.0469 15.5553 47.8444 15.7692 47.6343 15.9792H49.7162V16.9133L48.152 18.0386V18.0611C48.5796 18.0086 48.9622 17.9598 49.2998 17.9148C49.6449 17.8698 49.885 17.8398 50.0201 17.8248L50.0538 18.8601C49.9038 18.8751 49.6562 18.9051 49.3111 18.9502C48.966 18.9952 48.5796 19.0439 48.152 19.0965V20.2331C48.152 20.4581 48.1332 20.6382 48.0957 20.7732C48.0657 20.9158 48.0057 21.0283 47.9156 21.1108C47.8256 21.2009 47.7018 21.2646 47.5443 21.3022C47.3867 21.3397 47.1842 21.3697 46.9366 21.3922L46.1713 21.4597L45.845 20.4131L46.5202 20.3456C46.6477 20.3306 46.749 20.3156 46.824 20.3006C46.9066 20.2856 46.9703 20.2631 47.0153 20.2331C47.0604 20.1956 47.0904 20.143 47.1054 20.0755C47.1204 20.008 47.1279 19.9142 47.1279 19.7942V19.2202L45.001 19.5016L44.8997 18.455C44.9747 18.4475 45.0872 18.4363 45.2373 18.4212C45.3873 18.4062 45.5599 18.3875 45.7549 18.365C45.9575 18.3425 46.1751 18.3162 46.4077 18.2862C46.6402 18.2562 46.8803 18.2262 47.1279 18.1962V17.7573L48.2195 16.9245H46.5877C46.1151 17.3221 45.6087 17.716 45.0685 18.1061L44.4945 17.2509C45.3798 16.6882 46.1863 16.0505 46.9141 15.3378H44.9222V14.3362H46.644V13.3346H45.3386V12.4118H46.644V11.1739L47.6343 11.219V12.4118H48.7146V13.1096C48.8572 12.8845 48.9922 12.6557 49.1198 12.4231C49.2473 12.183 49.3673 11.9392 49.4799 11.6916L50.3352 12.1418C50.1476 12.5469 49.9488 12.9295 49.7387 13.2896C49.5286 13.6497 49.3036 13.9986 49.0635 14.3362H49.9525V14.7526C50.0876 14.475 50.2189 14.1787 50.3464 13.8636C50.4739 13.5485 50.5902 13.2334 50.6953 12.9183C50.8003 12.6032 50.8941 12.2956 50.9766 11.9955C51.0666 11.6954 51.1342 11.4215 51.1792 11.1739L52.2483 11.2865C52.1132 11.8417 51.9669 12.3818 51.8094 12.907H54.6678V13.9536H53.9475C53.8425 14.8464 53.6887 15.6416 53.4861 16.3393C53.2911 17.0296 53.0173 17.6748 52.6646 18.2749ZM47.6343 14.3362H47.8369C47.9644 14.1711 48.0882 14.0061 48.2082 13.841C48.3358 13.676 48.4558 13.5072 48.5683 13.3346H47.6343V14.3362ZM51.1792 14.595C51.2617 15.1127 51.3705 15.5929 51.5055 16.0355C51.6406 16.4706 51.8131 16.8833 52.0232 17.2734C52.2483 16.8157 52.4283 16.3206 52.5634 15.7879C52.7059 15.2477 52.8184 14.6363 52.901 13.9536H51.4493C51.4042 14.0586 51.3592 14.1674 51.3142 14.2799C51.2767 14.385 51.2317 14.49 51.1792 14.595ZM57.4179 15.3603H56.315V13.0533H57.9468C57.8192 12.8207 57.6804 12.5881 57.5304 12.3556C57.3804 12.1155 57.2228 11.8679 57.0577 11.6128L58.0481 11.1064C58.2281 11.369 58.4157 11.6579 58.6107 11.973C58.8133 12.2806 58.9896 12.5656 59.1397 12.8282L58.7908 13.0533H60.5801C60.4526 12.7907 60.3213 12.5206 60.1862 12.243C60.0512 11.9579 59.9162 11.6954 59.7811 11.4553L60.7489 11.0051C60.8915 11.2452 61.049 11.5341 61.2216 11.8717C61.4016 12.2093 61.5704 12.5356 61.728 12.8507L61.3904 13.0533H62.3694C62.6095 12.6932 62.8346 12.3481 63.0446 12.018C63.2547 11.6879 63.4385 11.384 63.5961 11.1064L64.6427 11.6466C64.5076 11.8642 64.3576 12.093 64.1925 12.3331C64.035 12.5731 63.8737 12.8132 63.7086 13.0533H65.3854V15.3603H64.305V14.1111H57.4179V15.3603ZM65.7005 18.6013H61.6042V19.918C61.6042 20.2031 61.5779 20.4281 61.5254 20.5932C61.4729 20.7657 61.3829 20.9008 61.2553 20.9983C61.1353 21.1033 60.974 21.1784 60.7714 21.2234C60.5689 21.2684 60.3138 21.3059 60.0062 21.3359L59.2072 21.4147L58.8583 20.2668L59.7586 20.1993C59.9011 20.1918 60.0137 20.1806 60.0962 20.1655C60.1862 20.143 60.2538 20.113 60.2988 20.0755C60.3438 20.0305 60.3738 19.9705 60.3888 19.8955C60.4038 19.8129 60.4113 19.7042 60.4113 19.5691V18.6013H55.9999V17.5097H60.4113V17.0371C60.4863 16.992 60.6139 16.917 60.7939 16.812C60.9815 16.707 61.1728 16.6019 61.3679 16.4969C61.5704 16.3844 61.758 16.2868 61.9305 16.2043C62.1031 16.1143 62.2231 16.0693 62.2907 16.0693H57.8117V15.0114H64.1475V16.0693C64.05 16.0918 63.8887 16.163 63.6636 16.2831C63.446 16.4031 63.2059 16.5381 62.9434 16.6882C62.6883 16.8382 62.437 16.9883 62.1894 17.1383C61.9418 17.2884 61.7467 17.4047 61.6042 17.4872V17.5097H65.7005V18.6013ZM69.9023 16.9695C69.8198 16.8645 69.7185 16.752 69.5984 16.6319C69.4859 16.5044 69.3734 16.3806 69.2608 16.2606V21.4034H68.2818V16.6432C68.1242 17.0558 67.9517 17.4534 67.7641 17.8361C67.5841 18.2187 67.404 18.5638 67.2239 18.8714L66.5487 18.0161C66.6838 17.7985 66.8263 17.5435 66.9764 17.2509C67.1264 16.9508 67.2765 16.6357 67.4265 16.3056C67.5765 15.9755 67.7191 15.6341 67.8541 15.2815C67.9967 14.9289 68.1205 14.5875 68.2255 14.2574H67.1001V13.2108H68.2818V11.2527L69.2608 11.2977V13.2108H70.1949V14.2574H69.2608V15.3153L69.4071 15.124C69.5272 15.229 69.651 15.3415 69.7785 15.4616C69.9135 15.5816 70.0448 15.7054 70.1724 15.8329C71.0351 15.4578 71.7779 14.9927 72.4006 14.4375H70.3974V13.4922H71.6691C71.6016 13.3872 71.519 13.2671 71.4215 13.1321C71.324 12.9895 71.2227 12.8507 71.1177 12.7157C71.0126 12.5731 70.9076 12.4381 70.8026 12.3106C70.705 12.183 70.615 12.0742 70.5325 11.9842L71.219 11.399C71.3015 11.489 71.3953 11.5978 71.5003 11.7254C71.6053 11.8454 71.7104 11.9767 71.8154 12.1192C71.9279 12.2543 72.033 12.3931 72.1305 12.5356C72.2355 12.6707 72.3256 12.7945 72.4006 12.907L71.7254 13.4922H72.8395V11.2415L73.8635 11.2865V13.4922H74.8539L74.2349 12.9408C74.3249 12.8507 74.4262 12.7419 74.5388 12.6144C74.6513 12.4869 74.7638 12.3556 74.8764 12.2205C74.9889 12.078 75.0977 11.9392 75.2027 11.8041C75.3077 11.6691 75.3978 11.5491 75.4728 11.444L76.2043 11.9842C76.1293 12.0967 76.0392 12.2205 75.9342 12.3556C75.8367 12.4906 75.7316 12.6257 75.6191 12.7607C75.5141 12.8957 75.4053 13.027 75.2927 13.1546C75.1877 13.2821 75.0902 13.3947 75.0002 13.4922H76.5194V14.4375H74.3249C74.9926 15.0152 75.8854 15.5103 77.0033 15.923L76.6544 16.9245C76.0692 16.6844 75.5516 16.4294 75.1014 16.1593C74.6513 15.8892 74.2387 15.5816 73.8635 15.2365V16.4406H72.8395V15.2928C72.5394 15.5853 72.2055 15.8629 71.8379 16.1255C71.4778 16.3881 71.0539 16.6394 70.5662 16.8795L70.3637 16.4294L69.9023 16.9695ZM73.1883 16.5532C73.1508 16.6507 73.1133 16.7482 73.0758 16.8457C73.0383 16.9358 73.0008 17.0296 72.9633 17.1271H76.7557V18.1287H75.5178C75.3903 18.4287 75.2515 18.7026 75.1014 18.9502C74.9589 19.1902 74.7863 19.4153 74.5838 19.6254L76.6657 20.4919L76.2043 21.4034C75.7842 21.2084 75.3678 21.0171 74.9551 20.8295C74.55 20.6495 74.1411 20.4694 73.7285 20.2893C73.3159 20.5369 72.8057 20.7582 72.198 20.9533C71.5978 21.1484 70.8588 21.3397 69.9811 21.5272L69.6435 20.5257C70.3037 20.4056 70.8663 20.2893 71.3315 20.1768C71.8041 20.0568 72.2093 19.933 72.5469 19.8054C72.2318 19.6704 71.9167 19.5391 71.6016 19.4116C71.2865 19.284 70.9714 19.1565 70.6563 19.0289C70.7538 18.8864 70.8513 18.7401 70.9489 18.59C71.0464 18.44 71.1402 18.2862 71.2302 18.1287H70.0036V17.1271H71.8041C71.8792 16.977 71.9467 16.8345 72.0067 16.6995C72.0742 16.5569 72.1342 16.4219 72.1868 16.2943L73.1883 16.5532ZM72.4568 18.1287C72.4043 18.2187 72.3518 18.3087 72.2993 18.3987C72.2543 18.4888 72.2055 18.575 72.153 18.6576C72.3481 18.7326 72.5656 18.8189 72.8057 18.9164C73.0533 19.0064 73.3159 19.1077 73.5935 19.2202C73.766 19.0702 73.9123 18.9051 74.0323 18.7251C74.1599 18.545 74.2762 18.3462 74.3812 18.1287H72.4568Z" fill="#123871"/>
<path d="M50.0958 29.9674H48.8179V29.3923H50.0958V28.9725H48.9183V28.4248H50.0958V28.014H48.8453V27.4298H50.0958V26.9096L50.9082 26.9461V27.4298H52.3595V28.014H50.9082V28.4248H52.1952V28.9725H50.9082V29.3923H52.5238V29.9674H50.9082V30.3416H50.0958V29.9674ZM46.609 29.9674H44.9386V29.3923H46.609V28.9725H45.3037V28.4248H46.609V28.014H45.1303V27.4298H46.609V26.9187L47.4396 26.9552V27.4298H48.608V28.014H47.4396V28.4248H48.535V28.9725H47.4396V29.3923H48.6445V29.9674H47.4396V30.3416H46.609V29.9674ZM51.8575 32.8609H49.0005C49.11 32.9705 49.2256 33.0952 49.3473 33.2352C49.4751 33.3691 49.5999 33.5029 49.7216 33.6368L49.1739 34.1754C49.0279 33.9928 48.8666 33.8042 48.6901 33.6094C48.5137 33.4086 48.3615 33.2443 48.2337 33.1165L48.5258 32.8609H45.4497V32.3041H51.0086V31.9299H45.7327V31.4096H51.0086V31.0354H45.5501V30.4877H51.8575V32.8609ZM51.3829 32.8609C51.4802 32.9644 51.5867 33.08 51.7023 33.2078C51.818 33.3295 51.9305 33.4543 52.0401 33.582C52.1557 33.7098 52.2683 33.8376 52.3778 33.9654C52.4873 34.0932 52.5847 34.2088 52.6699 34.3123L52.0674 34.8782C51.8971 34.647 51.6962 34.3944 51.465 34.1206C51.2338 33.8407 51.0086 33.582 50.7895 33.3447L51.3829 32.8609ZM44.7104 34.4766C44.899 34.2697 45.0937 34.0293 45.2946 33.7555C45.4954 33.4816 45.6627 33.2291 45.7966 32.9979L46.5086 33.4177C46.3564 33.6855 46.1708 33.9563 45.9518 34.2301C45.7388 34.51 45.541 34.7565 45.3584 34.9695L44.7104 34.4766ZM50.0411 33.8924C50.0532 33.8255 50.0654 33.7372 50.0776 33.6277C50.0897 33.5182 50.0989 33.4117 50.105 33.3082L50.8991 33.6186C50.8869 33.7829 50.8626 33.9593 50.8261 34.148C50.7895 34.3062 50.7439 34.437 50.6891 34.5405C50.6405 34.65 50.5705 34.7352 50.4792 34.7961C50.394 34.863 50.2814 34.9117 50.1415 34.9421C50.0076 34.9786 49.8402 34.9999 49.6394 35.006C49.037 35.0364 48.4376 35.0364 47.8412 35.006C47.6404 34.9999 47.4731 34.9817 47.3392 34.9512C47.2053 34.9208 47.0958 34.8691 47.0106 34.7961C46.9315 34.723 46.8737 34.6226 46.8372 34.4948C46.8067 34.367 46.7915 34.2027 46.7915 34.0019V33.0709L47.6404 33.1074V33.865C47.6404 34.0415 47.6769 34.1571 47.75 34.2119C47.8291 34.2727 47.966 34.3092 48.1607 34.3214C48.5806 34.3518 49.0035 34.3518 49.4295 34.3214C49.6486 34.3092 49.7976 34.2727 49.8768 34.2119C49.9559 34.1571 50.0106 34.0506 50.0411 33.8924ZM55.4573 28.9086C55.3721 28.8173 55.2687 28.7138 55.147 28.5982C55.0253 28.4765 54.8944 28.3579 54.7545 28.2422C54.6206 28.1205 54.4867 28.0049 54.3528 27.8954C54.219 27.7858 54.1003 27.6915 53.9969 27.6124L54.4898 26.9643C54.5932 27.0313 54.7088 27.1134 54.8366 27.2108C54.9705 27.3081 55.1044 27.4116 55.2382 27.5211C55.3721 27.6246 55.4999 27.7311 55.6216 27.8406C55.7494 27.9441 55.8589 28.0384 55.9502 28.1236L55.4573 28.9086ZM59.7383 32.2859V33.9837C59.7383 34.1845 59.72 34.3457 59.6835 34.4675C59.6531 34.5952 59.5953 34.6987 59.5101 34.7778C59.431 34.8569 59.3245 34.9117 59.1906 34.9421C59.0628 34.9786 58.9046 35.006 58.716 35.0243L58.2687 35.0608L58.004 34.221L58.4239 34.1845C58.5273 34.1784 58.6095 34.1662 58.6703 34.148C58.7312 34.1297 58.7768 34.1023 58.8073 34.0658C58.8377 34.0293 58.8559 33.9776 58.862 33.9107C58.8742 33.8376 58.8803 33.7463 58.8803 33.6368V32.2859H57.3833V28.8538H58.6156C58.6582 28.7199 58.6977 28.5891 58.7342 28.4613C58.7707 28.3335 58.8042 28.2027 58.8346 28.0688H56.8995V30.2686C56.8995 30.8346 56.8813 31.3366 56.8448 31.7747C56.8143 32.2068 56.7596 32.6114 56.6805 32.9887C56.6013 33.366 56.4949 33.7311 56.361 34.0841C56.2332 34.4309 56.0719 34.7961 55.8772 35.1794L55.0557 34.7961C55.2565 34.4127 55.4208 34.0567 55.5486 33.7281C55.6764 33.3995 55.7768 33.0648 55.8498 32.724C55.9228 32.3772 55.9715 32.0121 55.9959 31.6287C56.0263 31.2392 56.0415 30.795 56.0415 30.296V27.2199H61.6917V28.0688H59.3275L59.7018 28.1327C59.6714 28.2361 59.6379 28.3518 59.6014 28.4796C59.571 28.6073 59.5344 28.7321 59.4918 28.8538H61.1988V32.2859H59.7383ZM55.1744 30.9532C55.0709 30.8437 54.9522 30.7281 54.8184 30.6064C54.6906 30.4846 54.5567 30.3629 54.4167 30.2412C54.2829 30.1195 54.149 30.0039 54.0151 29.8944C53.8812 29.7848 53.7626 29.6936 53.6591 29.6205L54.1064 28.9542C54.2159 29.0272 54.3407 29.1155 54.4806 29.2189C54.6206 29.3163 54.7606 29.4228 54.9005 29.5384C55.0466 29.654 55.1835 29.7696 55.3113 29.8853C55.4451 29.9948 55.5638 30.0982 55.6673 30.1956L55.1744 30.9532ZM58.2322 29.584V30.223H60.3499V29.584H58.2322ZM58.2322 31.5465H60.3499V30.935H58.2322V31.5465ZM55.4756 31.6378C55.4634 31.6987 55.436 31.8173 55.3934 31.9938C55.3569 32.1703 55.3082 32.3741 55.2474 32.6054C55.1926 32.8366 55.1318 33.0831 55.0648 33.3447C55.004 33.6064 54.9431 33.8528 54.8823 34.0841C54.8275 34.3092 54.7758 34.504 54.7271 34.6683C54.6845 34.8387 54.6571 34.9482 54.6449 34.9969L53.8052 34.7687C53.8295 34.7017 53.863 34.5831 53.9056 34.4127C53.9543 34.2484 54.009 34.0567 54.0699 33.8376C54.1307 33.6125 54.1916 33.3751 54.2524 33.1257C54.3133 32.8762 54.3711 32.6388 54.4259 32.4137C54.4806 32.1885 54.5263 31.9877 54.5628 31.8112C54.6054 31.6348 54.6328 31.507 54.6449 31.4279L55.4756 31.6378ZM58.3509 32.9887C58.2657 33.147 58.1683 33.3143 58.0588 33.4908C57.9553 33.6612 57.8458 33.8315 57.7302 34.0019C57.6145 34.1723 57.4959 34.3366 57.3742 34.4948C57.2586 34.6591 57.146 34.8082 57.0364 34.9421L56.4157 34.4309C56.6531 34.1449 56.8843 33.8437 57.1095 33.5273C57.3346 33.2108 57.5233 32.8975 57.6754 32.5871L58.3509 32.9887ZM60.7606 32.5962C60.8458 32.6997 60.9462 32.8244 61.0618 32.9705C61.1775 33.1165 61.2931 33.2717 61.4087 33.436C61.5304 33.6003 61.643 33.7646 61.7464 33.9289C61.856 34.0871 61.9472 34.2301 62.0203 34.3579L61.3813 34.8873C61.3083 34.7595 61.217 34.6074 61.1075 34.4309C60.9979 34.2606 60.8854 34.0871 60.7698 33.9107C60.6541 33.7342 60.5385 33.5699 60.4229 33.4177C60.3134 33.2595 60.216 33.1287 60.1308 33.0252L60.7606 32.5962ZM65.0542 31.5009C64.9872 31.4157 64.9051 31.3244 64.8077 31.2271C64.7164 31.1236 64.6251 31.0232 64.5339 30.9258V35.0973H63.7397V31.2362C63.6119 31.5709 63.472 31.8934 63.3199 32.2037C63.1738 32.5141 63.0278 32.794 62.8817 33.0435L62.334 32.3498C62.4436 32.1733 62.5592 31.9664 62.6809 31.7291C62.8026 31.4857 62.9243 31.2301 63.046 30.9623C63.1677 30.6946 63.2833 30.4177 63.3929 30.1317C63.5085 29.8457 63.6089 29.5688 63.6941 29.3011H62.7813V28.4522H63.7397V26.8639L64.5339 26.9004V28.4522H65.2915V29.3011H64.5339V30.1591L64.6525 30.0039C64.7499 30.0891 64.8503 30.1804 64.9537 30.2778C65.0633 30.3751 65.1698 30.4755 65.2732 30.579C65.973 30.2747 66.5755 29.8974 67.0805 29.4471H65.4558V28.6804H66.4872C66.4325 28.5952 66.3655 28.4978 66.2864 28.3883C66.2073 28.2727 66.1252 28.1601 66.04 28.0505C65.9548 27.9349 65.8696 27.8254 65.7844 27.7219C65.7053 27.6185 65.6323 27.5303 65.5653 27.4572L66.1221 26.9826C66.1891 27.0556 66.2651 27.1438 66.3503 27.2473C66.4355 27.3447 66.5207 27.4511 66.6059 27.5668C66.6972 27.6763 66.7824 27.7889 66.8615 27.9045C66.9467 28.014 67.0197 28.1144 67.0805 28.2057L66.5329 28.6804H67.4365V26.8548L68.2672 26.8913V28.6804H69.0704L68.5684 28.2331C68.6414 28.1601 68.7236 28.0718 68.8148 27.9684C68.9061 27.8649 68.9974 27.7585 69.0887 27.6489C69.18 27.5333 69.2682 27.4207 69.3534 27.3112C69.4386 27.2017 69.5116 27.1043 69.5725 27.0191L70.1658 27.4572C70.1049 27.5485 70.0319 27.6489 69.9467 27.7585C69.8676 27.868 69.7824 27.9775 69.6911 28.0871C69.6059 28.1966 69.5177 28.3031 69.4264 28.4065C69.3412 28.51 69.2621 28.6013 69.1891 28.6804H70.4214V29.4471H68.6414C69.183 29.9157 69.9072 30.3173 70.8139 30.652L70.5309 31.4644C70.0562 31.2696 69.6364 31.0627 69.2712 30.8437C68.9061 30.6246 68.5714 30.3751 68.2672 30.0952V31.0719H67.4365V30.1408C67.1931 30.3782 66.9223 30.6033 66.6242 30.8163C66.3321 31.0293 65.9882 31.2331 65.5927 31.4279L65.4284 31.0627L65.0542 31.5009ZM67.7195 31.1632C67.6891 31.2423 67.6586 31.3214 67.6282 31.4005C67.5978 31.4735 67.5674 31.5496 67.5369 31.6287H70.613V32.4411H69.609C69.5055 32.6845 69.3929 32.9066 69.2712 33.1074C69.1556 33.3021 69.0157 33.4847 68.8514 33.6551L70.54 34.3579L70.1658 35.0973C69.825 34.9391 69.4873 34.7839 69.1526 34.6318C68.824 34.4857 68.4923 34.3397 68.1576 34.1936C67.8229 34.3944 67.4092 34.5739 66.9162 34.7322C66.4294 34.8904 65.83 35.0456 65.1181 35.1977L64.8442 34.3853C65.3797 34.2879 65.8361 34.1936 66.2134 34.1023C66.5968 34.005 66.9254 33.9046 67.1992 33.8011C66.9436 33.6916 66.688 33.5851 66.4325 33.4816C66.1769 33.3782 65.9213 33.2747 65.6657 33.1713C65.7448 33.0557 65.8239 32.937 65.903 32.8153C65.9822 32.6936 66.0582 32.5689 66.1312 32.4411H65.1363V31.6287H66.5968C66.6576 31.507 66.7124 31.3914 66.7611 31.2818C66.8158 31.1662 66.8645 31.0567 66.9071 30.9532L67.7195 31.1632ZM67.1262 32.4411C67.0836 32.5141 67.041 32.5871 66.9984 32.6601C66.9619 32.7332 66.9223 32.8031 66.8797 32.8701C67.038 32.9309 67.2144 33.0009 67.4092 33.08C67.61 33.153 67.8229 33.2352 68.0481 33.3265C68.1881 33.2048 68.3067 33.0709 68.4041 32.9248C68.5075 32.7788 68.6019 32.6175 68.6871 32.4411H67.1262Z" fill="#3A5A8A"/>
<defs>
<linearGradient id="paint0_linear_674_33800" x1="81.2292" y1="-0.181216" x2="6.66198" y2="33.9336" gradientUnits="userSpaceOnUse">
<stop offset="0.5" stop-color="#809AF5"/>
<stop offset="0.5" stop-color="#3867E2"/>
</linearGradient>
</defs>
</svg>
