<svg width="117" height="53" viewBox="0 0 117 53" fill="none" xmlns="http://www.w3.org/2000/svg">
<path d="M37.9925 39.5544H12.3832C11.1782 39.5544 10.6853 42.0858 11.7406 42.6674C17.5551 45.8722 22.6667 50.2645 24.525 51.9372C24.9424 52.3129 25.5857 52.3022 25.9914 51.9139C27.7764 50.2055 32.6861 45.7588 38.6012 42.5257C39.6526 41.951 39.1907 39.5544 37.9925 39.5544Z" fill="#4573E7"/>
<rect width="116.557" height="45.4013" rx="22.7007" fill="url(#paint0_linear_674_33975)"/>
<rect x="4.86821" y="4.86819" width="106.821" height="35.6649" rx="17.8325" fill="#D6DFF5"/>
<path d="M36.6312 32.9316H17.8745C17.6484 32.9315 17.4316 32.8417 17.2717 32.6818C17.1119 32.5219 17.0221 32.3051 17.0221 32.079C17.0221 31.8529 17.1119 31.6361 17.2717 31.4762C17.4316 31.3163 17.6484 31.2264 17.8745 31.2264H18.7271V15.0275C18.7271 14.3491 18.9965 13.6986 19.4762 13.2189C19.9559 12.7392 20.6065 12.4698 21.2848 12.4698H27.3296C28.0079 12.4698 28.6585 12.7392 29.1381 13.2189C29.6178 13.6986 29.8873 14.3491 29.8873 15.0275V19.5035L33.9285 20.6715C34.4614 20.8249 34.9299 21.1474 35.2636 21.5902C35.5973 22.0331 35.778 22.5724 35.7786 23.1269V31.2264H36.6312C36.8572 31.2264 37.0741 31.3163 37.2339 31.4762C37.3938 31.6361 37.4836 31.8529 37.4836 32.079C37.4836 32.3051 37.3938 32.5219 37.2339 32.6818C37.0741 32.8417 36.8572 32.9315 36.6312 32.9316ZM29.8873 31.2264H34.0734V23.1269C34.081 22.9367 34.0247 22.7494 33.9134 22.5949C33.8022 22.4404 33.6424 22.3275 33.4596 22.2744L29.8873 21.2428V24.2182H31.5924C31.8185 24.2183 32.0353 24.3081 32.1952 24.468C32.3551 24.6279 32.4449 24.8447 32.4449 25.0708C32.4449 25.2969 32.3551 25.5137 32.1952 25.6736C32.0353 25.8335 31.8185 25.9234 31.5924 25.9234H29.8873V27.3642H31.5924C31.8185 27.3643 32.0353 27.4541 32.1952 27.614C32.3551 27.7739 32.4449 27.9907 32.4449 28.2168C32.4449 28.4429 32.3551 28.6597 32.1952 28.8196C32.0353 28.9795 31.8185 29.0694 31.5924 29.0694H29.8873V31.2264ZM26.8692 31.2264H28.1821V15.0275C28.1821 14.8014 28.0923 14.5845 27.9324 14.4246C27.7725 14.2647 27.5557 14.1749 27.3296 14.1749H21.2848C21.0587 14.1749 20.8418 14.2647 20.6819 14.4246C20.5221 14.5845 20.4322 14.8014 20.4322 15.0275V31.2264H21.7537V27.8161C21.7537 27.59 21.8435 27.3731 22.0034 27.2132C22.1633 27.0534 22.3802 26.9635 22.6063 26.9635H26.0166C26.1286 26.9635 26.2394 26.9856 26.3429 27.0284C26.4463 27.0713 26.5403 27.1341 26.6195 27.2132C26.6986 27.2924 26.7614 27.3864 26.8043 27.4898C26.8471 27.5933 26.8692 27.7041 26.8692 27.8161V31.2264ZM23.4589 31.2264H25.164V28.6687H23.4589V31.2264ZM26.0166 24.8321H22.6063C22.3802 24.8321 22.1633 24.7423 22.0034 24.5824C21.8435 24.4225 21.7537 24.2056 21.7537 23.9795C21.7537 23.7534 21.8435 23.5365 22.0034 23.3767C22.1633 23.2168 22.3802 23.1269 22.6063 23.1269H26.0166C26.2427 23.1269 26.4596 23.2168 26.6195 23.3767C26.7793 23.5365 26.8692 23.7534 26.8692 23.9795C26.8692 24.2056 26.7793 24.4225 26.6195 24.5824C26.4596 24.7423 26.2427 24.8321 26.0166 24.8321ZM26.0166 21.4218H22.6063C22.3802 21.4218 22.1634 21.3319 22.0035 21.172C21.8437 21.0121 21.7538 20.7953 21.7538 20.5692C21.7538 20.3431 21.8437 20.1263 22.0035 19.9664C22.1634 19.8065 22.3802 19.7167 22.6063 19.7166H26.0166C26.2427 19.7167 26.4595 19.8065 26.6194 19.9664C26.7792 20.1263 26.869 20.3431 26.869 20.5692C26.869 20.7953 26.7792 21.0121 26.6194 21.172C26.4595 21.3319 26.2427 21.4218 26.0166 21.4218ZM26.0166 18.0115H22.6063C22.3802 18.0115 22.1634 17.9216 22.0035 17.7617C21.8437 17.6019 21.7538 17.385 21.7538 17.1589C21.7538 16.9328 21.8437 16.716 22.0035 16.5561C22.1634 16.3962 22.3802 16.3064 22.6063 16.3063H26.0166C26.2427 16.3064 26.4595 16.3962 26.6194 16.5561C26.7792 16.716 26.869 16.9328 26.869 17.1589C26.869 17.385 26.7792 17.6019 26.6194 17.7617C26.4595 17.9216 26.2427 18.0115 26.0166 18.0115Z" fill="#2566E5"/>
<path d="M52.6647 18.2749C52.9572 18.6575 53.2911 19.0251 53.6662 19.3777C54.0488 19.7303 54.4877 20.0867 54.9829 20.4468L54.2627 21.5272C53.3324 20.8144 52.5671 20.0642 51.9669 19.2765C51.6518 19.6591 51.2955 20.0342 50.8978 20.4018C50.5077 20.7694 50.0576 21.1445 49.5474 21.5272L48.8159 20.5594C49.3786 20.1767 49.8663 19.8091 50.2789 19.4565C50.6915 19.0964 51.0479 18.7213 51.348 18.3312C50.9429 17.6109 50.6465 16.8344 50.459 16.0017C50.4064 16.0842 50.3539 16.163 50.3014 16.238C50.2564 16.313 50.2039 16.3918 50.1439 16.4743L49.4461 15.6641C49.4836 15.6115 49.5174 15.559 49.5474 15.5065C49.5774 15.454 49.6112 15.3977 49.6487 15.3377H48.242C48.0469 15.5553 47.8444 15.7691 47.6343 15.9792H49.7162V16.9132L48.152 18.0386V18.0611C48.5796 18.0086 48.9622 17.9598 49.2998 17.9148C49.6449 17.8698 49.885 17.8398 50.0201 17.8247L50.0538 18.8601C49.9038 18.8751 49.6562 18.9051 49.3111 18.9501C48.966 18.9951 48.5796 19.0439 48.152 19.0964V20.233C48.152 20.4581 48.1332 20.6381 48.0957 20.7732C48.0657 20.9157 48.0057 21.0283 47.9156 21.1108C47.8256 21.2008 47.7018 21.2646 47.5443 21.3021C47.3867 21.3396 47.1842 21.3696 46.9366 21.3921L46.1713 21.4596L45.845 20.4131L46.5202 20.3455C46.6477 20.3305 46.749 20.3155 46.8241 20.3005C46.9066 20.2855 46.9703 20.263 47.0154 20.233C47.0604 20.1955 47.0904 20.143 47.1054 20.0755C47.1204 20.0079 47.1279 19.9142 47.1279 19.7941V19.2202L45.001 19.5015L44.8997 18.4549C44.9747 18.4474 45.0873 18.4362 45.2373 18.4212C45.3873 18.4062 45.5599 18.3874 45.755 18.3649C45.9575 18.3424 46.1751 18.3162 46.4077 18.2861C46.6402 18.2561 46.8803 18.2261 47.1279 18.1961V17.7572L48.2195 16.9245H46.5877C46.1151 17.3221 45.6087 17.716 45.0685 18.1061L44.4946 17.2508C45.3798 16.6881 46.1864 16.0504 46.9141 15.3377H44.9222V14.3361H46.644V13.3346H45.3386V12.4118H46.644V11.1739L47.6343 11.2189V12.4118H48.7147V13.1095C48.8572 12.8844 48.9922 12.6556 49.1198 12.423C49.2473 12.183 49.3674 11.9391 49.4799 11.6916L50.3352 12.1417C50.1476 12.5468 49.9488 12.9294 49.7387 13.2896C49.5287 13.6497 49.3036 13.9985 49.0635 14.3361H49.9525V14.7525C50.0876 14.4749 50.2189 14.1786 50.3464 13.8635C50.474 13.5484 50.5902 13.2333 50.6953 12.9182C50.8003 12.6031 50.8941 12.2955 50.9766 11.9954C51.0666 11.6953 51.1342 11.4215 51.1792 11.1739L52.2483 11.2864C52.1132 11.8416 51.9669 12.3818 51.8094 12.9069H54.6678V13.9535H53.9476C53.8425 14.8463 53.6887 15.6416 53.4862 16.3393C53.2911 17.0295 53.0173 17.6747 52.6647 18.2749ZM47.6343 14.3361H47.8369C47.9644 14.1711 48.0882 14.006 48.2082 13.841C48.3358 13.6759 48.4558 13.5071 48.5684 13.3346H47.6343V14.3361ZM51.1792 14.595C51.2617 15.1126 51.3705 15.5928 51.5055 16.0354C51.6406 16.4706 51.8131 16.8832 52.0232 17.2733C52.2483 16.8157 52.4283 16.3205 52.5634 15.7879C52.7059 15.2477 52.8185 14.6362 52.901 13.9535H51.4493C51.4043 14.0586 51.3592 14.1673 51.3142 14.2799C51.2767 14.3849 51.2317 14.4899 51.1792 14.595ZM57.4179 15.3602H56.315V13.0532H57.9468C57.8193 12.8207 57.6805 12.5881 57.5304 12.3555C57.3804 12.1154 57.2228 11.8679 57.0578 11.6128L58.0481 11.1064C58.2281 11.369 58.4157 11.6578 58.6108 11.9729C58.8133 12.2805 58.9896 12.5656 59.1397 12.8282L58.7908 13.0532H60.5801C60.4526 12.7907 60.3213 12.5206 60.1863 12.243C60.0512 11.9579 59.9162 11.6953 59.7811 11.4552L60.7489 11.0051C60.8915 11.2452 61.049 11.534 61.2216 11.8716C61.4016 12.2092 61.5704 12.5356 61.728 12.8507L61.3904 13.0532H62.3694C62.6095 12.6931 62.8346 12.348 63.0447 12.0179C63.2547 11.6878 63.4385 11.384 63.5961 11.1064L64.6427 11.6465C64.5076 11.8641 64.3576 12.0929 64.1925 12.333C64.035 12.5731 63.8737 12.8132 63.7086 13.0532H65.3854V15.3602H64.3051V14.1111H57.4179V15.3602ZM65.7005 18.6012H61.6042V19.9179C61.6042 20.203 61.5779 20.4281 61.5254 20.5931C61.4729 20.7657 61.3829 20.9007 61.2553 20.9983C61.1353 21.1033 60.974 21.1783 60.7714 21.2233C60.5689 21.2683 60.3138 21.3058 60.0062 21.3359L59.2072 21.4146L58.8583 20.2668L59.7586 20.1992C59.9012 20.1917 60.0137 20.1805 60.0962 20.1655C60.1863 20.143 60.2538 20.113 60.2988 20.0755C60.3438 20.0304 60.3738 19.9704 60.3888 19.8954C60.4038 19.8129 60.4113 19.7041 60.4113 19.569V18.6012H55.9999V17.5096H60.4113V17.037C60.4864 16.992 60.6139 16.917 60.7939 16.8119C60.9815 16.7069 61.1728 16.6019 61.3679 16.4968C61.5704 16.3843 61.758 16.2868 61.9306 16.2042C62.1031 16.1142 62.2232 16.0692 62.2907 16.0692H57.8118V15.0114H64.1475V16.0692C64.05 16.0917 63.8887 16.163 63.6636 16.283C63.446 16.403 63.206 16.5381 62.9434 16.6881C62.6883 16.8382 62.437 16.9882 62.1894 17.1383C61.9418 17.2883 61.7467 17.4046 61.6042 17.4871V17.5096H65.7005V18.6012ZM69.9023 16.9695C69.8198 16.8644 69.7185 16.7519 69.5985 16.6319C69.4859 16.5043 69.3734 16.3805 69.2608 16.2605V21.4034H68.2818V16.6431C68.1242 17.0558 67.9517 17.4534 67.7641 17.836C67.5841 18.2186 67.404 18.5637 67.224 18.8713L66.5487 18.0161C66.6838 17.7985 66.8263 17.5434 66.9764 17.2508C67.1264 16.9507 67.2765 16.6356 67.4265 16.3055C67.5766 15.9754 67.7191 15.6341 67.8542 15.2814C67.9967 14.9288 68.1205 14.5875 68.2255 14.2574H67.1002V13.2108H68.2818V11.2527L69.2608 11.2977V13.2108H70.1949V14.2574H69.2608V15.3152L69.4071 15.1239C69.5272 15.2289 69.651 15.3415 69.7785 15.4615C69.9136 15.5815 70.0448 15.7053 70.1724 15.8329C71.0352 15.4577 71.7779 14.9926 72.4006 14.4374H70.3975V13.4921H71.6691C71.6016 13.3871 71.5191 13.2671 71.4215 13.132C71.324 12.9895 71.2227 12.8507 71.1177 12.7156C71.0127 12.5731 70.9076 12.438 70.8026 12.3105C70.7051 12.183 70.615 12.0742 70.5325 11.9841L71.219 11.399C71.3015 11.489 71.3953 11.5978 71.5003 11.7253C71.6053 11.8454 71.7104 11.9766 71.8154 12.1192C71.9279 12.2542 72.033 12.393 72.1305 12.5356C72.2355 12.6706 72.3256 12.7944 72.4006 12.9069L71.7254 13.4921H72.8395V11.2414L73.8636 11.2864V13.4921H74.8539L74.2349 12.9407C74.325 12.8507 74.4262 12.7419 74.5388 12.6143C74.6513 12.4868 74.7638 12.3555 74.8764 12.2205C74.9889 12.0779 75.0977 11.9391 75.2027 11.8041C75.3078 11.669 75.3978 11.549 75.4728 11.444L76.2043 11.9841C76.1293 12.0967 76.0392 12.2205 75.9342 12.3555C75.8367 12.4906 75.7316 12.6256 75.6191 12.7606C75.5141 12.8957 75.4053 13.027 75.2928 13.1545C75.1877 13.2821 75.0902 13.3946 75.0002 13.4921H76.5194V14.4374H74.325C74.9927 15.0151 75.8854 15.5103 77.0033 15.9229L76.6544 16.9245C76.0693 16.6844 75.5516 16.4293 75.1014 16.1592C74.6513 15.8891 74.2387 15.5815 73.8636 15.2364V16.4406H72.8395V15.2927C72.5394 15.5853 72.2055 15.8629 71.8379 16.1255C71.4778 16.388 71.0539 16.6394 70.5663 16.8794L70.3637 16.4293L69.9023 16.9695ZM73.1883 16.5531C73.1508 16.6506 73.1133 16.7482 73.0758 16.8457C73.0383 16.9357 73.0008 17.0295 72.9633 17.127H76.7557V18.1286H75.5178C75.3903 18.4287 75.2515 18.7025 75.1014 18.9501C74.9589 19.1902 74.7863 19.4153 74.5838 19.6253L76.6657 20.4918L76.2043 21.4034C75.7842 21.2083 75.3678 21.017 74.9552 20.8294C74.55 20.6494 74.1411 20.4693 73.7285 20.2893C73.3159 20.5369 72.8057 20.7582 72.198 20.9532C71.5978 21.1483 70.8589 21.3396 69.9811 21.5272L69.6435 20.5256C70.3037 20.4056 70.8664 20.2893 71.3315 20.1767C71.8042 20.0567 72.2093 19.9329 72.5469 19.8054C72.2318 19.6703 71.9167 19.539 71.6016 19.4115C71.2865 19.284 70.9714 19.1564 70.6563 19.0289C70.7538 18.8863 70.8514 18.74 70.9489 18.59C71.0464 18.4399 71.1402 18.2861 71.2302 18.1286H70.0036V17.127H71.8042C71.8792 16.977 71.9467 16.8344 72.0067 16.6994C72.0742 16.5568 72.1343 16.4218 72.1868 16.2943L73.1883 16.5531ZM72.4569 18.1286C72.4043 18.2186 72.3518 18.3086 72.2993 18.3987C72.2543 18.4887 72.2055 18.575 72.153 18.6575C72.3481 18.7325 72.5656 18.8188 72.8057 18.9163C73.0533 19.0064 73.3159 19.1077 73.5935 19.2202C73.766 19.0701 73.9123 18.9051 74.0324 18.725C74.1599 18.545 74.2762 18.3462 74.3812 18.1286H72.4569Z" fill="#123871"/>
<path d="M52.7886 33.9562V34.7869H47.2206V33.9562H49.6121V33.1712H47.7408V32.3315H49.6121V31.5465H47.8139V27.2381H52.25V31.5465H50.4518V32.3315H52.3596V33.1712H50.4518V33.9562H52.7886ZM47.6678 33.8102C47.5765 33.8224 47.4518 33.8467 47.2936 33.8832C47.1354 33.9136 46.9619 33.9501 46.7733 33.9927C46.5846 34.0353 46.3869 34.081 46.18 34.1297C45.9731 34.1723 45.7753 34.2149 45.5867 34.2575C45.4041 34.3061 45.2368 34.3487 45.0846 34.3852C44.9386 34.4218 44.829 34.4491 44.756 34.4674L44.6374 33.6094C44.7408 33.5911 44.899 33.5607 45.112 33.5181C45.3311 33.4694 45.5684 33.4177 45.824 33.3629V31.0901H44.9112V30.2503H45.824V28.3517H44.8382V27.5211H47.6039V28.3517H46.6638V30.2503H47.54V31.0901H46.6638V33.1712C46.8646 33.1225 47.0471 33.08 47.2114 33.0434C47.3757 33.0008 47.5005 32.9674 47.5857 32.943L47.6678 33.8102ZM48.6628 28.0596V28.9998H49.6121V28.0596H48.6628ZM51.4103 28.0596H50.4518V28.9998H51.4103V28.0596ZM49.6121 30.725V29.803H48.6628V30.725H49.6121ZM51.4103 30.725V29.803H50.4518V30.725H51.4103ZM60.5416 32.7696V35.0516H59.6562V32.8609L56.717 33.1621L56.6531 32.3223L56.5709 32.4136C56.4797 32.2919 56.3701 32.152 56.2423 31.9937C56.1206 31.8355 55.9989 31.6864 55.8772 31.5465V35.079H55.0648V31.729C54.8944 32.0759 54.7149 32.4075 54.5263 32.724C54.3437 33.0343 54.1642 33.3142 53.9877 33.5637L53.3944 32.8883C53.6683 32.511 53.9451 32.085 54.2251 31.6104C54.505 31.1357 54.7484 30.655 54.9553 30.1682H53.8143V29.301H55.0648V28.3061C54.8579 28.3426 54.6571 28.376 54.4624 28.4065C54.2677 28.4369 54.0882 28.4643 53.9238 28.4886L53.8417 27.6489C54.0608 27.6245 54.3042 27.591 54.5719 27.5485C54.8397 27.4998 55.1105 27.448 55.3843 27.3933C55.6642 27.3385 55.9381 27.2807 56.2058 27.2198C56.4736 27.1529 56.717 27.089 56.9361 27.0282L57.1004 27.8588C56.9239 27.9075 56.7322 27.9562 56.5253 28.0048C56.3184 28.0535 56.1024 28.1022 55.8772 28.1509V29.301H57.0182V30.1682H55.8772V30.8162L56.0963 30.6154C56.1632 30.6824 56.2393 30.7645 56.3245 30.8619C56.4158 30.9592 56.507 31.0627 56.5983 31.1722C56.6957 31.2818 56.79 31.3913 56.8813 31.5008C56.9786 31.6104 57.0638 31.7138 57.1369 31.8112L56.717 32.2584L59.6562 31.9572V26.8365L60.5416 26.873V31.8568L61.7099 31.7382L61.7647 32.6418L60.5416 32.7696ZM58.8712 29.5657C58.7677 29.4562 58.6491 29.3375 58.5152 29.2097C58.3813 29.0759 58.2444 28.945 58.1044 28.8172C57.9645 28.6834 57.8275 28.5586 57.6937 28.443C57.5598 28.3274 57.4442 28.233 57.3468 28.16L57.8945 27.5028C58.004 27.588 58.1257 27.6884 58.2596 27.804C58.3996 27.9197 58.5395 28.0414 58.6795 28.1691C58.8194 28.2909 58.9533 28.4156 59.0811 28.5434C59.215 28.6651 59.3336 28.7746 59.4371 28.872L58.8712 29.5657ZM57.6206 29.6661C57.7302 29.7513 57.8519 29.8487 57.9858 29.9582C58.1257 30.0677 58.2657 30.1834 58.4056 30.3051C58.5456 30.4268 58.6856 30.5485 58.8255 30.6702C58.9655 30.7919 59.0902 30.9075 59.1998 31.017L58.6247 31.7382C58.5152 31.6347 58.3904 31.5191 58.2505 31.3913C58.1166 31.2635 57.9766 31.1357 57.8306 31.0079C57.6906 30.8801 57.5537 30.7615 57.4198 30.6519C57.286 30.5363 57.1703 30.4389 57.073 30.3598L57.6206 29.6661ZM62.827 30.8893H65.5927V31.8203H62.827V30.8893ZM74.7154 33.8284V34.7321H66.9019V33.8284H70.4253V31.9025H67.7691V31.017H70.4253V29.4014H68.5176C68.3837 29.6996 68.2407 29.9856 68.0886 30.2594C67.9364 30.5333 67.766 30.8132 67.5774 31.0992L66.765 30.5972C67.1484 30.0617 67.4648 29.517 67.7143 28.9633C67.9638 28.4034 68.1707 27.7919 68.335 27.1286L69.2387 27.3476C69.1778 27.5606 69.117 27.7645 69.0561 27.9592C69.0013 28.1478 68.9405 28.3304 68.8736 28.5069H70.4253V26.8091L71.3655 26.8456V28.5069H74.2864V29.4014H71.3655V31.017H73.9852V31.9025H71.3655V33.8284H74.7154ZM80.1043 26.6722C80.5242 27.1468 81.0597 27.6032 81.7108 28.0414C82.368 28.4795 83.1013 28.8842 83.9106 29.2554L83.5181 30.159C83.2504 30.0252 82.9887 29.8882 82.7331 29.7483C82.4775 29.6083 82.225 29.4592 81.9755 29.301V29.9217H77.4116V29.301C77.1681 29.4531 76.9186 29.5992 76.6631 29.7391C76.4075 29.8791 76.1458 30.0191 75.8781 30.159L75.4947 29.2371C76.2919 28.872 77.0191 28.4734 77.6763 28.0414C78.3335 27.6032 78.869 27.1468 79.2828 26.6722H80.1043ZM81.5739 29.0454C81.1905 28.7898 80.8406 28.5343 80.5242 28.2787C80.2077 28.017 79.9339 27.7553 79.7027 27.4937C79.4714 27.7553 79.1945 28.017 78.872 28.2787C78.5495 28.5343 78.1966 28.7898 77.8132 29.0454H81.5739ZM79.7757 30.5698H83.0343V33.0252C83.0343 33.2564 83.0161 33.442 82.9796 33.582C82.9431 33.7219 82.8792 33.8345 82.7879 33.9197C82.7027 33.9988 82.5871 34.0597 82.441 34.1023C82.295 34.1388 82.1124 34.1692 81.8933 34.1936L81.4096 34.2483L81.1266 33.3629L81.5739 33.3173C81.6956 33.3051 81.7929 33.2899 81.866 33.2716C81.9451 33.2534 82.0059 33.226 82.0485 33.1895C82.0911 33.153 82.1185 33.1043 82.1307 33.0434C82.1489 32.9826 82.1581 32.9035 82.1581 32.8061V31.4004H80.6337V35.0698H79.7757V30.5698ZM76.4075 30.6063H79.2097V34.2666H76.4075V30.6063ZM77.2655 33.4086H78.3426V31.4369H77.2655V33.4086ZM89.1534 29.9582C89.263 30.4268 89.4182 30.8619 89.619 31.2635C89.8198 31.659 90.0693 32.0302 90.3675 32.3771C90.6656 32.724 91.0155 33.0526 91.4172 33.3629C91.8249 33.6672 92.2874 33.9593 92.8046 34.2392L92.2204 35.1611C91.3685 34.6378 90.6535 34.0688 90.0754 33.4542C89.4973 32.8396 89.053 32.1854 88.7427 31.4917C88.5784 31.8751 88.3715 32.2402 88.122 32.587C87.8725 32.9278 87.5956 33.2503 87.2914 33.5546C86.9871 33.8589 86.6585 34.1449 86.3055 34.4126C85.9587 34.6865 85.5997 34.9451 85.2285 35.1885L84.6351 34.2392C85.0854 33.9836 85.5114 33.7037 85.913 33.3994C86.3208 33.0891 86.6798 32.7513 86.9901 32.3862C87.3066 32.0211 87.5652 31.6286 87.766 31.2087C87.9729 30.7828 88.1007 30.3264 88.1494 29.8396H84.9455V28.9085H88.1768V26.8182L89.1808 26.8547V28.9085H92.4395V29.8396H89.1626C89.1626 29.8578 89.1595 29.8761 89.1534 29.8943C89.1534 29.9126 89.1534 29.9339 89.1534 29.9582ZM96.0302 31.5008C95.9632 31.4156 95.8811 31.3244 95.7837 31.227C95.6924 31.1235 95.6012 31.0231 95.5099 30.9258V35.0972H94.7158V31.2361C94.588 31.5708 94.448 31.8933 94.2959 32.2037C94.1498 32.514 94.0038 32.7939 93.8577 33.0434L93.3101 32.3497C93.4196 32.1732 93.5352 31.9663 93.6569 31.729C93.7786 31.4856 93.9003 31.23 94.022 30.9623C94.1437 30.6945 94.2594 30.4177 94.3689 30.1316C94.4845 29.8456 94.5849 29.5688 94.6701 29.301H93.7573V28.4521H94.7158V26.8639L95.5099 26.9004V28.4521H96.2675V29.301H95.5099V30.159L95.6285 30.0039C95.7259 30.089 95.8263 30.1803 95.9298 30.2777C96.0393 30.3751 96.1458 30.4755 96.2492 30.5789C96.949 30.2746 97.5515 29.8974 98.0566 29.4471H96.4318V28.6803H97.4632C97.4085 28.5951 97.3415 28.4978 97.2624 28.3882C97.1833 28.2726 97.1012 28.16 97.016 28.0505C96.9308 27.9349 96.8456 27.8253 96.7604 27.7219C96.6813 27.6184 96.6083 27.5302 96.5413 27.4572L97.0981 26.9825C97.1651 27.0555 97.2411 27.1438 97.3263 27.2472C97.4115 27.3446 97.4967 27.4511 97.5819 27.5667C97.6732 27.6762 97.7584 27.7888 97.8375 27.9044C97.9227 28.014 97.9957 28.1144 98.0566 28.2057L97.5089 28.6803H98.4125V26.8547L99.2432 26.8912V28.6803H100.046L99.5444 28.233C99.6174 28.16 99.6996 28.0718 99.7909 27.9683C99.8821 27.8649 99.9734 27.7584 100.065 27.6489C100.156 27.5332 100.244 27.4207 100.329 27.3111C100.415 27.2016 100.488 27.1042 100.548 27.019L101.142 27.4572C101.081 27.5485 101.008 27.6489 100.923 27.7584C100.844 27.8679 100.758 27.9775 100.667 28.087C100.582 28.1965 100.494 28.303 100.402 28.4065C100.317 28.5099 100.238 28.6012 100.165 28.6803H101.397V29.4471H99.6174C100.159 29.9156 100.883 30.3172 101.79 30.6519L101.507 31.4643C101.032 31.2696 100.612 31.0627 100.247 30.8436C99.8821 30.6245 99.5474 30.3751 99.2432 30.0951V31.0718H98.4125V30.1408C98.1691 30.3781 97.8983 30.6033 97.6002 30.8162C97.3081 31.0292 96.9643 31.2331 96.5687 31.4278L96.4044 31.0627L96.0302 31.5008ZM98.6955 31.1631C98.6651 31.2422 98.6347 31.3213 98.6042 31.4004C98.5738 31.4734 98.5434 31.5495 98.513 31.6286H101.589V32.441H100.585C100.482 32.6844 100.369 32.9065 100.247 33.1073C100.132 33.3021 99.9917 33.4846 99.8274 33.655L101.516 34.3579L101.142 35.0972C100.801 34.939 100.463 34.7838 100.129 34.6317C99.8 34.4856 99.4683 34.3396 99.1337 34.1936C98.799 34.3944 98.3852 34.5739 97.8923 34.7321C97.4054 34.8903 96.806 35.0455 96.0941 35.1976L95.8202 34.3852C96.3557 34.2879 96.8121 34.1936 97.1894 34.1023C97.5728 34.0049 97.9014 33.9045 98.1752 33.8011C97.9196 33.6915 97.6641 33.585 97.4085 33.4816C97.1529 33.3781 96.8973 33.2747 96.6417 33.1712C96.7208 33.0556 96.8 32.9369 96.8791 32.8152C96.9582 32.6935 97.0342 32.5688 97.1073 32.441H96.1123V31.6286H97.5728C97.6336 31.5069 97.6884 31.3913 97.7371 31.2818C97.7919 31.1661 97.8405 31.0566 97.8831 30.9532L98.6955 31.1631ZM98.1022 32.441C98.0596 32.514 98.017 32.587 97.9744 32.6601C97.9379 32.7331 97.8983 32.8031 97.8557 32.87C98.014 32.9309 98.1904 33.0008 98.3852 33.08C98.586 33.153 98.799 33.2351 99.0241 33.3264C99.1641 33.2047 99.2827 33.0708 99.3801 32.9248C99.4836 32.7787 99.5779 32.6175 99.6631 32.441H98.1022Z" fill="#3A5A8A"/>
<defs>
<linearGradient id="paint0_linear_674_33975" x1="102.292" y1="-0.181216" x2="17.0343" y2="48.9386" gradientUnits="userSpaceOnUse">
<stop offset="0.5" stop-color="#809AF5"/>
<stop offset="0.5" stop-color="#3867E2"/>
</linearGradient>
</defs>
</svg>
