<svg width="113" height="53" viewBox="0 0 113 53" fill="none" xmlns="http://www.w3.org/2000/svg">
<path d="M37.9925 39.5544H12.3832C11.1782 39.5544 10.6853 42.0858 11.7406 42.6674C17.5551 45.8722 22.6667 50.2645 24.525 51.9372C24.9424 52.3129 25.5857 52.3022 25.9914 51.9139C27.7764 50.2055 32.6861 45.7588 38.6012 42.5257C39.6526 41.951 39.1907 39.5544 37.9925 39.5544Z" fill="#4573E7"/>
<rect width="112.557" height="45.4013" rx="22.7007" fill="url(#paint0_linear_674_33976)"/>
<rect x="4.86821" y="4.86821" width="102.821" height="35.6649" rx="17.8325" fill="#D6DFF5"/>
<path d="M36.6312 32.9316H17.8745C17.6484 32.9315 17.4316 32.8417 17.2717 32.6818C17.1119 32.5219 17.0221 32.3051 17.0221 32.079C17.0221 31.8529 17.1119 31.6361 17.2717 31.4762C17.4316 31.3163 17.6484 31.2265 17.8745 31.2264H18.7271V15.0275C18.7271 14.3491 18.9966 13.6986 19.4762 13.2189C19.9559 12.7392 20.6065 12.4698 21.2848 12.4698H27.3296C28.0079 12.4698 28.6585 12.7392 29.1382 13.2189C29.6178 13.6986 29.8873 14.3491 29.8873 15.0275V19.5035L33.9285 20.6715C34.4614 20.825 34.9299 21.1474 35.2636 21.5903C35.5973 22.0331 35.778 22.5724 35.7786 23.127V31.2264H36.6312C36.8573 31.2265 37.0741 31.3163 37.2339 31.4762C37.3938 31.6361 37.4836 31.8529 37.4836 32.079C37.4836 32.3051 37.3938 32.5219 37.2339 32.6818C37.0741 32.8417 36.8573 32.9315 36.6312 32.9316ZM29.8873 31.2264H34.0734V23.127C34.081 22.9367 34.0247 22.7494 33.9134 22.5949C33.8022 22.4404 33.6424 22.3275 33.4596 22.2744L29.8873 21.2428V24.2183H31.5924C31.8185 24.2183 32.0354 24.3081 32.1952 24.468C32.3551 24.6279 32.4449 24.8447 32.4449 25.0708C32.4449 25.2969 32.3551 25.5138 32.1952 25.6736C32.0354 25.8335 31.8185 25.9234 31.5924 25.9234H29.8873V27.3643H31.5924C31.8185 27.3643 32.0354 27.4541 32.1952 27.614C32.3551 27.7739 32.4449 27.9907 32.4449 28.2168C32.4449 28.4429 32.3551 28.6598 32.1952 28.8196C32.0354 28.9795 31.8185 29.0694 31.5924 29.0694H29.8873V31.2264ZM26.8692 31.2264H28.1821V15.0275C28.1821 14.8014 28.0923 14.5845 27.9324 14.4246C27.7725 14.2647 27.5557 14.1749 27.3296 14.1749H21.2848C21.0587 14.1749 20.8418 14.2647 20.6819 14.4246C20.5221 14.5845 20.4322 14.8014 20.4322 15.0275V31.2264H21.7537V27.8161C21.7537 27.59 21.8435 27.3731 22.0034 27.2133C22.1633 27.0534 22.3802 26.9635 22.6063 26.9635H26.0166C26.1286 26.9635 26.2394 26.9856 26.3429 27.0284C26.4463 27.0713 26.5403 27.1341 26.6195 27.2133C26.6986 27.2924 26.7614 27.3864 26.8043 27.4899C26.8471 27.5933 26.8692 27.7042 26.8692 27.8161V31.2264ZM23.4589 31.2264H25.164V28.6687H23.4589V31.2264ZM26.0166 24.8321H22.6063C22.3802 24.8321 22.1633 24.7423 22.0034 24.5824C21.8435 24.4225 21.7537 24.2057 21.7537 23.9795C21.7537 23.7534 21.8435 23.5366 22.0034 23.3767C22.1633 23.2168 22.3802 23.127 22.6063 23.127H26.0166C26.2427 23.127 26.4596 23.2168 26.6195 23.3767C26.7794 23.5366 26.8692 23.7534 26.8692 23.9795C26.8692 24.2057 26.7794 24.4225 26.6195 24.5824C26.4596 24.7423 26.2427 24.8321 26.0166 24.8321ZM26.0166 21.4218H22.6063C22.3802 21.4218 22.1634 21.3319 22.0035 21.1721C21.8437 21.0122 21.7539 20.7953 21.7539 20.5692C21.7539 20.3431 21.8437 20.1263 22.0035 19.9664C22.1634 19.8065 22.3802 19.7167 22.6063 19.7167H26.0166C26.2427 19.7167 26.4595 19.8065 26.6194 19.9664C26.7792 20.1263 26.869 20.3431 26.869 20.5692C26.869 20.7953 26.7792 21.0122 26.6194 21.1721C26.4595 21.3319 26.2427 21.4218 26.0166 21.4218ZM26.0166 18.0115H22.6063C22.3802 18.0115 22.1634 17.9216 22.0035 17.7618C21.8437 17.6019 21.7539 17.385 21.7539 17.1589C21.7539 16.9328 21.8437 16.716 22.0035 16.5561C22.1634 16.3962 22.3802 16.3064 22.6063 16.3064H26.0166C26.2427 16.3064 26.4595 16.3962 26.6194 16.5561C26.7792 16.716 26.869 16.9328 26.869 17.1589C26.869 17.385 26.7792 17.6019 26.6194 17.7618C26.4595 17.9216 26.2427 18.0115 26.0166 18.0115Z" fill="#2566E5"/>
<path d="M52.6647 18.2749C52.9572 18.6575 53.2911 19.0251 53.6662 19.3778C54.0488 19.7304 54.4877 20.0867 54.9829 20.4468L54.2627 21.5272C53.3324 20.8145 52.5671 20.0642 51.9669 19.2765C51.6518 19.6591 51.2955 20.0342 50.8978 20.4018C50.5077 20.7694 50.0576 21.1446 49.5474 21.5272L48.8159 20.5594C49.3786 20.1768 49.8663 19.8091 50.2789 19.4565C50.6915 19.0964 51.0479 18.7213 51.348 18.3312C50.9429 17.6109 50.6465 16.8344 50.459 16.0017C50.4064 16.0842 50.3539 16.163 50.3014 16.238C50.2564 16.313 50.2039 16.3918 50.1439 16.4743L49.4461 15.6641C49.4836 15.6116 49.5174 15.559 49.5474 15.5065C49.5774 15.454 49.6112 15.3977 49.6487 15.3377H48.242C48.0469 15.5553 47.8444 15.7691 47.6343 15.9792H49.7162V16.9132L48.152 18.0386V18.0611C48.5796 18.0086 48.9622 17.9598 49.2998 17.9148C49.6449 17.8698 49.885 17.8398 50.0201 17.8248L50.0538 18.8601C49.9038 18.8751 49.6562 18.9051 49.3111 18.9501C48.966 18.9951 48.5796 19.0439 48.152 19.0964V20.233C48.152 20.4581 48.1332 20.6382 48.0957 20.7732C48.0657 20.9157 48.0057 21.0283 47.9156 21.1108C47.8256 21.2008 47.7018 21.2646 47.5443 21.3021C47.3867 21.3396 47.1842 21.3696 46.9366 21.3921L46.1713 21.4597L45.845 20.4131L46.5202 20.3456C46.6477 20.3306 46.749 20.3156 46.8241 20.3005C46.9066 20.2855 46.9703 20.263 47.0154 20.233C47.0604 20.1955 47.0904 20.143 47.1054 20.0755C47.1204 20.008 47.1279 19.9142 47.1279 19.7941V19.2202L45.001 19.5015L44.8997 18.455C44.9747 18.4475 45.0873 18.4362 45.2373 18.4212C45.3873 18.4062 45.5599 18.3874 45.755 18.3649C45.9575 18.3424 46.1751 18.3162 46.4077 18.2862C46.6402 18.2561 46.8803 18.2261 47.1279 18.1961V17.7572L48.2195 16.9245H46.5877C46.1151 17.3221 45.6087 17.716 45.0685 18.1061L44.4946 17.2508C45.3798 16.6882 46.1864 16.0504 46.9141 15.3377H44.9222V14.3362H46.644V13.3346H45.3386V12.4118H46.644V11.1739L47.6343 11.2189V12.4118H48.7147V13.1095C48.8572 12.8844 48.9922 12.6556 49.1198 12.423C49.2473 12.183 49.3674 11.9391 49.4799 11.6916L50.3352 12.1417C50.1476 12.5468 49.9488 12.9295 49.7387 13.2896C49.5287 13.6497 49.3036 13.9985 49.0635 14.3362H49.9525V14.7525C50.0876 14.4749 50.2189 14.1786 50.3464 13.8635C50.474 13.5484 50.5902 13.2333 50.6953 12.9182C50.8003 12.6031 50.8941 12.2955 50.9766 11.9954C51.0666 11.6953 51.1342 11.4215 51.1792 11.1739L52.2483 11.2864C52.1132 11.8416 51.9669 12.3818 51.8094 12.907H54.6678V13.9535H53.9476C53.8425 14.8463 53.6887 15.6416 53.4862 16.3393C53.2911 17.0295 53.0173 17.6747 52.6647 18.2749ZM47.6343 14.3362H47.8369C47.9644 14.1711 48.0882 14.0061 48.2082 13.841C48.3358 13.6759 48.4558 13.5071 48.5684 13.3346H47.6343V14.3362ZM51.1792 14.595C51.2617 15.1127 51.3705 15.5928 51.5055 16.0354C51.6406 16.4706 51.8131 16.8832 52.0232 17.2733C52.2483 16.8157 52.4283 16.3205 52.5634 15.7879C52.7059 15.2477 52.8185 14.6363 52.901 13.9535H51.4493C51.4043 14.0586 51.3592 14.1674 51.3142 14.2799C51.2767 14.3849 51.2317 14.49 51.1792 14.595ZM57.4179 15.3602H56.315V13.0532H57.9468C57.8193 12.8207 57.6805 12.5881 57.5304 12.3555C57.3804 12.1155 57.2228 11.8679 57.0578 11.6128L58.0481 11.1064C58.2281 11.369 58.4157 11.6578 58.6108 11.9729C58.8133 12.2805 58.9896 12.5656 59.1397 12.8282L58.7908 13.0532H60.5801C60.4526 12.7907 60.3213 12.5206 60.1863 12.243C60.0512 11.9579 59.9162 11.6953 59.7811 11.4552L60.7489 11.0051C60.8915 11.2452 61.049 11.534 61.2216 11.8716C61.4016 12.2092 61.5704 12.5356 61.728 12.8507L61.3904 13.0532H62.3694C62.6095 12.6931 62.8346 12.348 63.0447 12.0179C63.2547 11.6878 63.4385 11.384 63.5961 11.1064L64.6427 11.6466C64.5076 11.8641 64.3576 12.0929 64.1925 12.333C64.035 12.5731 63.8737 12.8132 63.7086 13.0532H65.3854V15.3602H64.3051V14.1111H57.4179V15.3602ZM65.7005 18.6013H61.6042V19.9179C61.6042 20.203 61.5779 20.4281 61.5254 20.5931C61.4729 20.7657 61.3829 20.9007 61.2553 20.9983C61.1353 21.1033 60.974 21.1783 60.7714 21.2233C60.5689 21.2684 60.3138 21.3059 60.0062 21.3359L59.2072 21.4146L58.8583 20.2668L59.7586 20.1993C59.9012 20.1918 60.0137 20.1805 60.0962 20.1655C60.1863 20.143 60.2538 20.113 60.2988 20.0755C60.3438 20.0305 60.3738 19.9704 60.3888 19.8954C60.4038 19.8129 60.4113 19.7041 60.4113 19.5691V18.6013H55.9999V17.5097H60.4113V17.037C60.4864 16.992 60.6139 16.917 60.7939 16.8119C60.9815 16.7069 61.1728 16.6019 61.3679 16.4968C61.5704 16.3843 61.758 16.2868 61.9306 16.2042C62.1031 16.1142 62.2232 16.0692 62.2907 16.0692H57.8118V15.0114H64.1475V16.0692C64.05 16.0917 63.8887 16.163 63.6636 16.283C63.446 16.4031 63.206 16.5381 62.9434 16.6882C62.6883 16.8382 62.437 16.9882 62.1894 17.1383C61.9418 17.2883 61.7467 17.4046 61.6042 17.4872V17.5097H65.7005V18.6013ZM69.9023 16.9695C69.8198 16.8645 69.7185 16.7519 69.5985 16.6319C69.4859 16.5043 69.3734 16.3806 69.2608 16.2605V21.4034H68.2818V16.6431C68.1242 17.0558 67.9517 17.4534 67.7641 17.836C67.5841 18.2186 67.404 18.5637 67.224 18.8713L66.5487 18.0161C66.6838 17.7985 66.8263 17.5434 66.9764 17.2508C67.1264 16.9507 67.2765 16.6356 67.4265 16.3055C67.5766 15.9754 67.7191 15.6341 67.8542 15.2815C67.9967 14.9288 68.1205 14.5875 68.2255 14.2574H67.1002V13.2108H68.2818V11.2527L69.2608 11.2977V13.2108H70.1949V14.2574H69.2608V15.3152L69.4071 15.1239C69.5272 15.2289 69.651 15.3415 69.7785 15.4615C69.9136 15.5816 70.0448 15.7053 70.1724 15.8329C71.0352 15.4578 71.7779 14.9926 72.4006 14.4374H70.3975V13.4921H71.6691C71.6016 13.3871 71.5191 13.2671 71.4215 13.132C71.324 12.9895 71.2227 12.8507 71.1177 12.7156C71.0127 12.5731 70.9076 12.4381 70.8026 12.3105C70.7051 12.183 70.615 12.0742 70.5325 11.9842L71.219 11.399C71.3015 11.489 71.3953 11.5978 71.5003 11.7253C71.6053 11.8454 71.7104 11.9767 71.8154 12.1192C71.9279 12.2542 72.033 12.393 72.1305 12.5356C72.2355 12.6706 72.3256 12.7944 72.4006 12.907L71.7254 13.4921H72.8395V11.2414L73.8636 11.2864V13.4921H74.8539L74.2349 12.9407C74.325 12.8507 74.4262 12.7419 74.5388 12.6144C74.6513 12.4868 74.7638 12.3555 74.8764 12.2205C74.9889 12.0779 75.0977 11.9391 75.2027 11.8041C75.3078 11.6691 75.3978 11.549 75.4728 11.444L76.2043 11.9842C76.1293 12.0967 76.0392 12.2205 75.9342 12.3555C75.8367 12.4906 75.7316 12.6256 75.6191 12.7607C75.5141 12.8957 75.4053 13.027 75.2928 13.1545C75.1877 13.2821 75.0902 13.3946 75.0002 13.4921H76.5194V14.4374H74.325C74.9927 15.0151 75.8854 15.5103 77.0033 15.9229L76.6544 16.9245C76.0693 16.6844 75.5516 16.4293 75.1014 16.1592C74.6513 15.8891 74.2387 15.5816 73.8636 15.2364V16.4406H72.8395V15.2927C72.5394 15.5853 72.2055 15.8629 71.8379 16.1255C71.4778 16.3881 71.0539 16.6394 70.5663 16.8795L70.3637 16.4293L69.9023 16.9695ZM73.1883 16.5531C73.1508 16.6506 73.1133 16.7482 73.0758 16.8457C73.0383 16.9357 73.0008 17.0295 72.9633 17.127H76.7557V18.1286H75.5178C75.3903 18.4287 75.2515 18.7025 75.1014 18.9501C74.9589 19.1902 74.7863 19.4153 74.5838 19.6253L76.6657 20.4919L76.2043 21.4034C75.7842 21.2083 75.3678 21.017 74.9552 20.8295C74.55 20.6494 74.1411 20.4693 73.7285 20.2893C73.3159 20.5369 72.8057 20.7582 72.198 20.9533C71.5978 21.1483 70.8589 21.3396 69.9811 21.5272L69.6435 20.5256C70.3037 20.4056 70.8664 20.2893 71.3315 20.1768C71.8042 20.0567 72.2093 19.9329 72.5469 19.8054C72.2318 19.6703 71.9167 19.5391 71.6016 19.4115C71.2865 19.284 70.9714 19.1564 70.6563 19.0289C70.7538 18.8863 70.8514 18.7401 70.9489 18.59C71.0464 18.44 71.1402 18.2862 71.2302 18.1286H70.0036V17.127H71.8042C71.8792 16.977 71.9467 16.8344 72.0067 16.6994C72.0742 16.5569 72.1343 16.4218 72.1868 16.2943L73.1883 16.5531ZM72.4569 18.1286C72.4043 18.2186 72.3518 18.3087 72.2993 18.3987C72.2543 18.4887 72.2055 18.575 72.153 18.6575C72.3481 18.7325 72.5656 18.8188 72.8057 18.9164C73.0533 19.0064 73.3159 19.1077 73.5935 19.2202C73.766 19.0702 73.9123 18.9051 74.0324 18.725C74.1599 18.545 74.2762 18.3462 74.3812 18.1286H72.4569Z" fill="#123871"/>
<path d="M49.1739 33.4451V34.2118H52.2865V34.9238H45.1394V34.2118H48.2794V33.4451H46.6364V32.8609C46.1495 33.2565 45.5806 33.6124 44.9295 33.9289L44.5552 33.1074C45.0299 32.9005 45.4528 32.6753 45.824 32.4319C46.1952 32.1885 46.5086 31.9268 46.7642 31.6469H44.7925V30.9623H46.2895V28.2605H45.0846V27.5667H46.2895V26.9004L47.1658 26.9369V27.5667H50.2875V26.9004L51.1547 26.9369V27.5667H52.3596V28.2605H51.1547V30.9623H52.6608V31.6469H50.6709C50.9569 31.9633 51.2794 32.228 51.6385 32.441C51.9975 32.6479 52.4113 32.8487 52.8798 33.0435L52.5056 33.8559C52.1648 33.6976 51.8514 33.5364 51.5654 33.3721C51.2855 33.2017 51.0208 33.0191 50.7713 32.8244V33.4451H49.1739ZM47.1658 28.2605V28.6803H50.2875V28.2605H47.1658ZM47.1658 29.8213H50.2875V29.3375H47.1658V29.8213ZM47.1658 30.9623H50.2875V30.4512H47.1658V30.9623ZM48.2794 32.7331V31.9846L49.1739 32.0211V32.7331H50.6526C50.4701 32.5749 50.2967 32.4076 50.1324 32.2311C49.968 32.0546 49.8129 31.8599 49.6668 31.6469H47.7682C47.5309 32.0242 47.2053 32.3863 46.7915 32.7331H48.2794ZM61.3448 31.4735V35.0334H60.5416V34.7139H57.0821V31.4552L57.8762 31.4917V33.8559H58.7799V30.9167H57.219V27.6124L57.9766 27.6489V30.0587H58.7799V26.7909L59.6288 26.8274V30.0587H60.4412V27.6124L61.1988 27.6489V30.9167H59.6288V33.8559H60.5416V31.437L61.3448 31.4735ZM53.8234 27.4389H56.863V28.297H55.7312C55.5912 28.869 55.4208 29.4167 55.22 29.94H56.5709V34.5313H54.3346V31.7382C54.2677 31.8477 54.1977 31.9542 54.1247 32.0577C54.0516 32.155 53.9786 32.2554 53.9056 32.3589L53.4492 31.6925C53.6013 31.4552 53.7504 31.1966 53.8965 30.9167C54.0425 30.6368 54.1794 30.3507 54.3072 30.0587C54.435 29.7605 54.5476 29.4623 54.645 29.1641C54.7484 28.8659 54.8336 28.5769 54.9005 28.297H53.8234V27.4389ZM55.8224 30.8071H55.1105V33.7007H55.8224V30.8071ZM63.968 29.6753H63.0734V27.7949H66.3777C66.329 27.6367 66.2804 27.4785 66.2317 27.3203C66.183 27.1621 66.1373 27.0282 66.0947 26.9187L67.0167 26.7909C67.0653 26.9126 67.1201 27.0647 67.181 27.2473C67.2418 27.4237 67.3027 27.6063 67.3635 27.7949H70.3392V29.6935H69.4264V28.6347H63.968V29.6753ZM66.4781 30.7067C66.3564 30.6155 66.2043 30.512 66.0217 30.3964C65.8453 30.2808 65.6597 30.1682 65.4649 30.0587C65.2763 29.943 65.0907 29.8365 64.9081 29.7392C64.7256 29.6357 64.5704 29.5536 64.4426 29.4927L64.8442 28.7534C64.9842 28.8203 65.1454 28.9025 65.328 28.9998C65.5106 29.0911 65.6931 29.1915 65.8757 29.301C66.0582 29.4045 66.2317 29.5079 66.396 29.6114C66.5664 29.7148 66.7094 29.8061 66.825 29.8852L66.4781 30.7067ZM70.2114 35.079C69.9984 34.9816 69.7489 34.869 69.4629 34.7413C69.1769 34.6135 68.8818 34.4826 68.5775 34.3488C68.2794 34.2149 67.9873 34.0871 67.7013 33.9654C67.4153 33.8376 67.1658 33.7281 66.9528 33.6368C66.5755 33.9836 66.0795 34.2727 65.4649 34.5039C64.8503 34.7413 64.0805 34.9573 63.1556 35.152L62.8452 34.2757C63.3503 34.1784 63.7976 34.081 64.187 33.9836C64.5826 33.8802 64.9264 33.7707 65.2185 33.655C65.5167 33.5333 65.7692 33.4025 65.9761 33.2625C66.183 33.1226 66.3564 32.9704 66.4964 32.8061H62.8361V31.9481H65.7023C65.5745 31.8629 65.4223 31.7686 65.2459 31.6652C65.0694 31.5617 64.8899 31.4583 64.7073 31.3548C64.5248 31.2453 64.3452 31.1449 64.1688 31.0536C63.9923 30.9562 63.8371 30.8771 63.7032 30.8163L64.0775 30.1043C64.2296 30.1773 64.403 30.2655 64.5978 30.369C64.7925 30.4664 64.9903 30.5698 65.1911 30.6793C65.3919 30.7889 65.5805 30.8984 65.757 31.008C65.9396 31.1114 66.0887 31.2027 66.2043 31.2818L65.8848 31.9481H66.9345C66.9893 31.7534 67.0258 31.5435 67.0441 31.3183C67.0684 31.0871 67.0866 30.8345 67.0988 30.5607L67.1445 28.945L68.0664 28.9816C68.0664 29.0607 68.0633 29.1793 68.0572 29.3375C68.0572 29.4897 68.0542 29.654 68.0481 29.8305C68.0481 30.0008 68.0451 30.1651 68.039 30.3234C68.0329 30.4816 68.0299 30.6002 68.0299 30.6793C68.0116 31.1662 67.9629 31.5891 67.8838 31.9481H70.54V32.8061H67.5826L67.5004 32.9613C67.7378 33.0587 67.9994 33.1652 68.2854 33.2808C68.5715 33.3903 68.8544 33.5029 69.1343 33.6185C69.4203 33.7341 69.6881 33.8437 69.9376 33.9471C70.1871 34.0445 70.397 34.1297 70.5674 34.2027L70.2114 35.079ZM74.2403 30.652H74.6236C74.6236 30.7067 74.6206 30.8132 74.6145 30.9714C74.6084 31.1236 74.5993 31.3031 74.5871 31.51C74.581 31.7169 74.5719 31.939 74.5597 32.1763C74.5536 32.4076 74.5445 32.6327 74.5323 32.8518C74.5263 33.0648 74.5171 33.2595 74.505 33.436C74.4989 33.6064 74.4958 33.7341 74.4958 33.8193C74.4837 34.0202 74.4593 34.1845 74.4228 34.3122C74.3924 34.4461 74.3346 34.5496 74.2494 34.6226C74.1703 34.7017 74.0607 34.7595 73.9208 34.796C73.7808 34.8386 73.5983 34.8721 73.3731 34.8964L72.8254 34.9512L72.5698 34.1936L73.0719 34.1571C73.2118 34.1449 73.3244 34.1297 73.4096 34.1114C73.4948 34.0932 73.5617 34.0628 73.6104 34.0202C73.6652 33.9776 73.7017 33.9197 73.72 33.8467C73.7382 33.7737 73.7504 33.6733 73.7565 33.5455C73.7565 33.4907 73.7595 33.369 73.7656 33.1804C73.7778 32.9857 73.7869 32.7727 73.793 32.5414C73.8052 32.3102 73.8143 32.0911 73.8204 31.8842C73.8325 31.6712 73.8386 31.5191 73.8386 31.4278H72.0039L72.223 28.3244L72.9623 28.3609L72.8072 30.652H73.4826L73.6469 28.0049H71.8396V27.2016H74.4411L74.295 29.7209C74.8488 29.2828 75.3204 28.8233 75.7098 28.3426C76.0993 27.8558 76.4249 27.3203 76.6865 26.7361H77.3802C77.6541 27.3507 78.0101 27.9075 78.4482 28.4065C78.8863 28.9055 79.3793 29.371 79.9269 29.8031L79.4431 30.5059C79.1693 30.2868 78.9076 30.0617 78.6582 29.8305V30.4785H75.3995V29.9035C75.3021 29.9948 75.2017 30.086 75.0983 30.1773C74.9948 30.2625 74.8883 30.3507 74.7788 30.442L74.295 29.7666L74.2403 30.652ZM77.0516 27.7767C76.8873 28.087 76.6957 28.3943 76.4766 28.6986C76.2575 29.0029 75.9989 29.3071 75.7007 29.6114H78.43C78.1318 29.3132 77.8671 29.012 77.6358 28.7077C77.4046 28.3974 77.2099 28.087 77.0516 27.7767ZM76.9147 33.2352C76.8904 33.0709 76.8539 32.8822 76.8052 32.6692C76.7626 32.4562 76.7139 32.2402 76.6591 32.0211C76.6044 31.8021 76.5466 31.5921 76.4857 31.3913C76.4249 31.1905 76.3671 31.0201 76.3123 30.8802L77.0243 30.652C77.0729 30.7858 77.1247 30.9532 77.1794 31.154C77.2403 31.3487 77.2981 31.5526 77.3529 31.7656C77.4137 31.9786 77.4654 32.1915 77.508 32.4045C77.5567 32.6114 77.5963 32.794 77.6267 32.9522L76.9147 33.2352ZM79.1054 30.9897C79.0567 31.1783 78.9959 31.3944 78.9229 31.6378C78.8559 31.8812 78.7799 32.1337 78.6947 32.3954C78.6156 32.651 78.5304 32.9096 78.4391 33.1713C78.3539 33.4268 78.2717 33.6642 78.1926 33.8832H79.4614V34.7413H74.651V33.8832H77.3985C77.4898 33.6459 77.5811 33.3903 77.6723 33.1165C77.7697 32.8427 77.8579 32.5688 77.937 32.295C78.0222 32.0211 78.1013 31.7504 78.1744 31.4826C78.2474 31.2149 78.3113 30.9654 78.3661 30.7341L79.1054 30.9897ZM75.5729 33.5364C75.5425 33.3599 75.4999 33.156 75.4451 32.9248C75.3904 32.6875 75.3326 32.4502 75.2717 32.2128C75.2109 31.9694 75.147 31.7382 75.08 31.5191C75.0192 31.3 74.9614 31.1175 74.9066 30.9714L75.5821 30.7341C75.6429 30.8923 75.7068 31.081 75.7737 31.3C75.8468 31.5191 75.9137 31.7473 75.9746 31.9846C76.0415 32.2159 76.1023 32.4441 76.1571 32.6692C76.2119 32.8944 76.2545 33.0922 76.2849 33.2625L75.5729 33.5364ZM73.5739 32.9157C73.2392 32.9948 72.9045 33.0678 72.5698 33.1348C72.2412 33.2017 71.9096 33.2595 71.5749 33.3082L71.5201 32.4684C71.8548 32.4258 72.1895 32.3771 72.5242 32.3224C72.8589 32.2615 73.1936 32.1976 73.5283 32.1307L73.5465 32.5232L73.5739 32.9157ZM85.1332 29.9582C85.2428 30.4268 85.398 30.8619 85.5988 31.2635C85.7996 31.6591 86.0491 32.0303 86.3473 32.3771C86.6454 32.724 86.9953 33.0526 87.397 33.3629C87.8047 33.6672 88.2672 33.9593 88.7844 34.2392L88.2002 35.1611C87.3483 34.6378 86.6333 34.0688 86.0552 33.4542C85.4771 32.8396 85.0328 32.1854 84.7225 31.4917C84.5582 31.8751 84.3513 32.2402 84.1018 32.5871C83.8523 32.9279 83.5754 33.2504 83.2712 33.5546C82.9669 33.8589 82.6383 34.1449 82.2853 34.4127C81.9385 34.6865 81.5795 34.9451 81.2083 35.1885L80.6149 34.2392C81.0653 33.9836 81.4912 33.7037 81.8928 33.3995C82.3006 33.0891 82.6596 32.7514 82.9699 32.3863C83.2864 32.0211 83.545 31.6286 83.7458 31.2088C83.9527 30.7828 84.0805 30.3264 84.1292 29.8396H80.9253V28.9085H84.1566V26.8182L85.1606 26.8548V28.9085H88.4193V29.8396H85.1424C85.1424 29.8578 85.1393 29.8761 85.1332 29.8943C85.1332 29.9126 85.1332 29.9339 85.1332 29.9582ZM92.01 31.5009C91.943 31.4157 91.8609 31.3244 91.7635 31.227C91.6722 31.1236 91.581 31.0232 91.4897 30.9258V35.0972H90.6956V31.2361C90.5678 31.5708 90.4278 31.8934 90.2757 32.2037C90.1296 32.5141 89.9836 32.794 89.8375 33.0435L89.2899 32.3498C89.3994 32.1733 89.515 31.9664 89.6367 31.7291C89.7584 31.4856 89.8801 31.2301 90.0018 30.9623C90.1235 30.6946 90.2392 30.4177 90.3487 30.1317C90.4643 29.8457 90.5647 29.5688 90.6499 29.301H89.7371V28.4521H90.6956V26.8639L91.4897 26.9004V28.4521H92.2473V29.301H91.4897V30.1591L91.6083 30.0039C91.7057 30.0891 91.8061 30.1804 91.9096 30.2777C92.0191 30.3751 92.1256 30.4755 92.229 30.5789C92.9288 30.2747 93.5313 29.8974 94.0364 29.4471H92.4116V28.6803H93.4431C93.3883 28.5951 93.3213 28.4978 93.2422 28.3882C93.1631 28.2726 93.081 28.16 92.9958 28.0505C92.9106 27.9349 92.8254 27.8254 92.7402 27.7219C92.6611 27.6185 92.5881 27.5302 92.5211 27.4572L93.0779 26.9826C93.1449 27.0556 93.2209 27.1438 93.3061 27.2473C93.3913 27.3446 93.4765 27.4511 93.5617 27.5667C93.653 27.6763 93.7382 27.7888 93.8173 27.9045C93.9025 28.014 93.9755 28.1144 94.0364 28.2057L93.4887 28.6803H94.3924V26.8548L95.223 26.8913V28.6803H96.0262L95.5242 28.2331C95.5972 28.16 95.6794 28.0718 95.7707 27.9684C95.8619 27.8649 95.9532 27.7584 96.0445 27.6489C96.1358 27.5333 96.224 27.4207 96.3092 27.3112C96.3944 27.2016 96.4674 27.1043 96.5283 27.0191L97.1216 27.4572C97.0607 27.5485 96.9877 27.6489 96.9025 27.7584C96.8234 27.868 96.7382 27.9775 96.6469 28.087C96.5617 28.1966 96.4735 28.3031 96.3822 28.4065C96.297 28.51 96.2179 28.6012 96.1449 28.6803H97.3772V29.4471H95.5972C96.1388 29.9156 96.863 30.3173 97.7697 30.652L97.4867 31.4643C97.0121 31.2696 96.5922 31.0627 96.2271 30.8436C95.8619 30.6246 95.5273 30.3751 95.223 30.0952V31.0718H94.3924V30.1408C94.1489 30.3781 93.8781 30.6033 93.58 30.8163C93.2879 31.0292 92.9441 31.2331 92.5485 31.4278L92.3842 31.0627L92.01 31.5009ZM94.6753 31.1631C94.6449 31.2422 94.6145 31.3213 94.584 31.4005C94.5536 31.4735 94.5232 31.5495 94.4928 31.6286H97.5689V32.441H96.5648C96.4613 32.6844 96.3488 32.9066 96.2271 33.1074C96.1114 33.3021 95.9715 33.4847 95.8072 33.655L97.4958 34.3579L97.1216 35.0972C96.7808 34.939 96.4431 34.7839 96.1084 34.6317C95.7798 34.4857 95.4481 34.3396 95.1135 34.1936C94.7788 34.3944 94.365 34.5739 93.8721 34.7321C93.3852 34.8903 92.7858 35.0455 92.0739 35.1977L91.8 34.3853C92.3355 34.2879 92.7919 34.1936 93.1692 34.1023C93.5526 34.0049 93.8812 33.9045 94.155 33.8011C93.8994 33.6916 93.6439 33.5851 93.3883 33.4816C93.1327 33.3782 92.8771 33.2747 92.6215 33.1713C92.7007 33.0556 92.7798 32.937 92.8589 32.8153C92.938 32.6936 93.014 32.5688 93.0871 32.441H92.0921V31.6286H93.5526C93.6134 31.5069 93.6682 31.3913 93.7169 31.2818C93.7717 31.1662 93.8203 31.0566 93.8629 30.9532L94.6753 31.1631ZM94.082 32.441C94.0394 32.5141 93.9968 32.5871 93.9542 32.6601C93.9177 32.7331 93.8781 32.8031 93.8356 32.87C93.9938 32.9309 94.1702 33.0009 94.365 33.08C94.5658 33.153 94.7788 33.2352 95.0039 33.3264C95.1439 33.2047 95.2625 33.0709 95.3599 32.9248C95.4634 32.7788 95.5577 32.6175 95.6429 32.441H94.082Z" fill="#3A5A8A"/>
<defs>
<linearGradient id="paint0_linear_674_33976" x1="98.7815" y1="-0.181216" x2="15.042" y2="46.4083" gradientUnits="userSpaceOnUse">
<stop offset="0.5" stop-color="#809AF5"/>
<stop offset="0.5" stop-color="#3867E2"/>
</linearGradient>
</defs>
</svg>
