<svg width="104" height="53" viewBox="0 0 104 53" fill="none" xmlns="http://www.w3.org/2000/svg">
<path d="M37.9925 39.5544H12.3832C11.1782 39.5544 10.6853 42.0858 11.7406 42.6674C17.5551 45.8722 22.6667 50.2645 24.525 51.9372C24.9424 52.3129 25.5857 52.3022 25.9914 51.9139C27.7764 50.2055 32.6861 45.7588 38.6012 42.5257C39.6526 41.951 39.1907 39.5544 37.9925 39.5544Z" fill="#4573E7"/>
<rect width="103.557" height="45.4013" rx="22.7007" fill="url(#paint0_linear_674_33974)"/>
<rect x="4.86821" y="4.86823" width="93.8205" height="35.6649" rx="17.8325" fill="#D6DFF5"/>
<path d="M36.6312 32.9316H17.8745C17.6484 32.9316 17.4316 32.8417 17.2717 32.6818C17.1119 32.5219 17.0221 32.3051 17.0221 32.079C17.0221 31.8529 17.1119 31.6361 17.2717 31.4762C17.4316 31.3163 17.6484 31.2265 17.8745 31.2264H18.7271V15.0275C18.7271 14.3492 18.9965 13.6986 19.4762 13.2189C19.9559 12.7393 20.6065 12.4698 21.2848 12.4698H27.3296C28.0079 12.4698 28.6585 12.7393 29.1381 13.2189C29.6178 13.6986 29.8873 14.3492 29.8873 15.0275V19.5035L33.9285 20.6716C34.4614 20.825 34.9299 21.1474 35.2636 21.5903C35.5973 22.0331 35.778 22.5725 35.7786 23.127V31.2264H36.6312C36.8572 31.2265 37.0741 31.3163 37.2339 31.4762C37.3938 31.6361 37.4836 31.8529 37.4836 32.079C37.4836 32.3051 37.3938 32.5219 37.2339 32.6818C37.0741 32.8417 36.8572 32.9316 36.6312 32.9316ZM29.8873 31.2264H34.0734V23.127C34.081 22.9367 34.0247 22.7494 33.9134 22.5949C33.8022 22.4404 33.6424 22.3276 33.4596 22.2744L29.8873 21.2428V24.2183H31.5924C31.8185 24.2183 32.0353 24.3081 32.1952 24.468C32.3551 24.6279 32.4449 24.8448 32.4449 25.0708C32.4449 25.2969 32.3551 25.5138 32.1952 25.6737C32.0353 25.8335 31.8185 25.9234 31.5924 25.9234H29.8873V27.3643H31.5924C31.8185 27.3643 32.0353 27.4541 32.1952 27.614C32.3551 27.7739 32.4449 27.9908 32.4449 28.2168C32.4449 28.4429 32.3551 28.6598 32.1952 28.8197C32.0353 28.9795 31.8185 29.0694 31.5924 29.0694H29.8873V31.2264ZM26.8692 31.2264H28.1821V15.0275C28.1821 14.8014 28.0923 14.5845 27.9324 14.4247C27.7725 14.2648 27.5557 14.1749 27.3296 14.1749H21.2848C21.0587 14.1749 20.8418 14.2648 20.6819 14.4247C20.5221 14.5845 20.4322 14.8014 20.4322 15.0275V31.2264H21.7537V27.8161C21.7537 27.59 21.8435 27.3732 22.0034 27.2133C22.1633 27.0534 22.3802 26.9636 22.6063 26.9636H26.0166C26.1286 26.9636 26.2394 26.9856 26.3429 27.0285C26.4463 27.0713 26.5403 27.1341 26.6195 27.2133C26.6986 27.2924 26.7614 27.3864 26.8043 27.4899C26.8471 27.5933 26.8692 27.7042 26.8692 27.8161V31.2264ZM23.4589 31.2264H25.164V28.6687H23.4589V31.2264ZM26.0166 24.8321H22.6063C22.3802 24.8321 22.1633 24.7423 22.0034 24.5824C21.8435 24.4225 21.7537 24.2057 21.7537 23.9795C21.7537 23.7534 21.8435 23.5366 22.0034 23.3767C22.1633 23.2168 22.3802 23.127 22.6063 23.127H26.0166C26.2427 23.127 26.4596 23.2168 26.6195 23.3767C26.7793 23.5366 26.8692 23.7534 26.8692 23.9795C26.8692 24.2057 26.7793 24.4225 26.6195 24.5824C26.4596 24.7423 26.2427 24.8321 26.0166 24.8321ZM26.0166 21.4218H22.6063C22.3802 21.4218 22.1634 21.332 22.0035 21.1721C21.8437 21.0122 21.7538 20.7953 21.7538 20.5693C21.7538 20.3432 21.8437 20.1263 22.0035 19.9664C22.1634 19.8065 22.3802 19.7167 22.6063 19.7167H26.0166C26.2427 19.7167 26.4595 19.8065 26.6194 19.9664C26.7792 20.1263 26.869 20.3432 26.869 20.5693C26.869 20.7953 26.7792 21.0122 26.6194 21.1721C26.4595 21.332 26.2427 21.4218 26.0166 21.4218ZM26.0166 18.0115H22.6063C22.3802 18.0115 22.1634 17.9217 22.0035 17.7618C21.8437 17.6019 21.7538 17.385 21.7538 17.159C21.7538 16.9329 21.8437 16.716 22.0035 16.5561C22.1634 16.3962 22.3802 16.3064 22.6063 16.3064H26.0166C26.2427 16.3064 26.4595 16.3962 26.6194 16.5561C26.7792 16.716 26.869 16.9329 26.869 17.159C26.869 17.385 26.7792 17.6019 26.6194 17.7618C26.4595 17.9217 26.2427 18.0115 26.0166 18.0115Z" fill="#2566E5"/>
<path d="M52.6647 18.2749C52.9572 18.6575 53.2911 19.0252 53.6662 19.3778C54.0488 19.7304 54.4877 20.0867 54.9829 20.4469L54.2627 21.5272C53.3324 20.8145 52.5671 20.0642 51.9669 19.2765C51.6518 19.6591 51.2955 20.0342 50.8978 20.4018C50.5077 20.7695 50.0576 21.1446 49.5474 21.5272L48.8159 20.5594C49.3786 20.1768 49.8663 19.8092 50.2789 19.4565C50.6915 19.0964 51.0479 18.7213 51.348 18.3312C50.9429 17.611 50.6465 16.8345 50.459 16.0017C50.4064 16.0842 50.3539 16.163 50.3014 16.238C50.2564 16.313 50.2039 16.3918 50.1439 16.4743L49.4461 15.6641C49.4836 15.6116 49.5174 15.5591 49.5474 15.5065C49.5774 15.454 49.6112 15.3978 49.6487 15.3377H48.242C48.0469 15.5553 47.8444 15.7691 47.6343 15.9792H49.7162V16.9132L48.152 18.0386V18.0611C48.5796 18.0086 48.9622 17.9598 49.2998 17.9148C49.6449 17.8698 49.885 17.8398 50.0201 17.8248L50.0538 18.8601C49.9038 18.8751 49.6562 18.9051 49.3111 18.9501C48.966 18.9951 48.5796 19.0439 48.152 19.0964V20.233C48.152 20.4581 48.1332 20.6382 48.0957 20.7732C48.0657 20.9158 48.0057 21.0283 47.9156 21.1108C47.8256 21.2008 47.7018 21.2646 47.5443 21.3021C47.3867 21.3396 47.1842 21.3696 46.9366 21.3922L46.1713 21.4597L45.845 20.4131L46.5202 20.3456C46.6477 20.3306 46.749 20.3156 46.8241 20.3006C46.9066 20.2856 46.9703 20.263 47.0154 20.233C47.0604 20.1955 47.0904 20.143 47.1054 20.0755C47.1204 20.008 47.1279 19.9142 47.1279 19.7942V19.2202L45.001 19.5016L44.8997 18.455C44.9747 18.4475 45.0873 18.4362 45.2373 18.4212C45.3873 18.4062 45.5599 18.3875 45.755 18.3649C45.9575 18.3424 46.1751 18.3162 46.4077 18.2862C46.6402 18.2562 46.8803 18.2262 47.1279 18.1961V17.7573L48.2195 16.9245H46.5877C46.1151 17.3221 45.6087 17.716 45.0685 18.1061L44.4946 17.2508C45.3798 16.6882 46.1864 16.0505 46.9141 15.3377H44.9222V14.3362H46.644V13.3346H45.3386V12.4118H46.644V11.1739L47.6343 11.2189V12.4118H48.7147V13.1095C48.8572 12.8845 48.9922 12.6556 49.1198 12.4231C49.2473 12.183 49.3674 11.9392 49.4799 11.6916L50.3352 12.1417C50.1476 12.5469 49.9488 12.9295 49.7387 13.2896C49.5287 13.6497 49.3036 13.9986 49.0635 14.3362H49.9525V14.7526C50.0876 14.475 50.2189 14.1786 50.3464 13.8635C50.474 13.5484 50.5902 13.2333 50.6953 12.9182C50.8003 12.6031 50.8941 12.2955 50.9766 11.9954C51.0666 11.6953 51.1342 11.4215 51.1792 11.1739L52.2483 11.2865C52.1132 11.8416 51.9669 12.3818 51.8094 12.907H54.6678V13.9536H53.9476C53.8425 14.8463 53.6887 15.6416 53.4862 16.3393C53.2911 17.0295 53.0173 17.6747 52.6647 18.2749ZM47.6343 14.3362H47.8369C47.9644 14.1711 48.0882 14.0061 48.2082 13.841C48.3358 13.676 48.4558 13.5072 48.5684 13.3346H47.6343V14.3362ZM51.1792 14.595C51.2617 15.1127 51.3705 15.5928 51.5055 16.0355C51.6406 16.4706 51.8131 16.8832 52.0232 17.2734C52.2483 16.8157 52.4283 16.3206 52.5634 15.7879C52.7059 15.2477 52.8185 14.6363 52.901 13.9536H51.4493C51.4043 14.0586 51.3592 14.1674 51.3142 14.2799C51.2767 14.3849 51.2317 14.49 51.1792 14.595ZM57.4179 15.3602H56.315V13.0533H57.9468C57.8193 12.8207 57.6805 12.5881 57.5304 12.3555C57.3804 12.1155 57.2228 11.8679 57.0578 11.6128L58.0481 11.1064C58.2281 11.369 58.4157 11.6578 58.6108 11.9729C58.8133 12.2805 58.9896 12.5656 59.1397 12.8282L58.7908 13.0533H60.5801C60.4526 12.7907 60.3213 12.5206 60.1863 12.243C60.0512 11.9579 59.9162 11.6953 59.7811 11.4553L60.7489 11.0051C60.8915 11.2452 61.049 11.534 61.2216 11.8716C61.4016 12.2092 61.5704 12.5356 61.728 12.8507L61.3904 13.0533H62.3694C62.6095 12.6932 62.8346 12.348 63.0447 12.0179C63.2547 11.6878 63.4385 11.384 63.5961 11.1064L64.6427 11.6466C64.5076 11.8641 64.3576 12.093 64.1925 12.333C64.035 12.5731 63.8737 12.8132 63.7086 13.0533H65.3854V15.3602H64.3051V14.1111H57.4179V15.3602ZM65.7005 18.6013H61.6042V19.9179C61.6042 20.203 61.5779 20.4281 61.5254 20.5932C61.4729 20.7657 61.3829 20.9008 61.2553 20.9983C61.1353 21.1033 60.974 21.1783 60.7714 21.2234C60.5689 21.2684 60.3138 21.3059 60.0062 21.3359L59.2072 21.4147L58.8583 20.2668L59.7586 20.1993C59.9012 20.1918 60.0137 20.1805 60.0962 20.1655C60.1863 20.143 60.2538 20.113 60.2988 20.0755C60.3438 20.0305 60.3738 19.9705 60.3888 19.8954C60.4038 19.8129 60.4113 19.7041 60.4113 19.5691V18.6013H55.9999V17.5097H60.4113V17.037C60.4864 16.992 60.6139 16.917 60.7939 16.812C60.9815 16.7069 61.1728 16.6019 61.3679 16.4969C61.5704 16.3843 61.758 16.2868 61.9306 16.2043C62.1031 16.1142 62.2232 16.0692 62.2907 16.0692H57.8118V15.0114H64.1475V16.0692C64.05 16.0917 63.8887 16.163 63.6636 16.283C63.446 16.4031 63.206 16.5381 62.9434 16.6882C62.6883 16.8382 62.437 16.9883 62.1894 17.1383C61.9418 17.2884 61.7467 17.4046 61.6042 17.4872V17.5097H65.7005V18.6013ZM69.9023 16.9695C69.8198 16.8645 69.7185 16.7519 69.5985 16.6319C69.4859 16.5044 69.3734 16.3806 69.2608 16.2605V21.4034H68.2818V16.6432C68.1242 17.0558 67.9517 17.4534 67.7641 17.836C67.5841 18.2187 67.404 18.5638 67.224 18.8714L66.5487 18.0161C66.6838 17.7985 66.8263 17.5434 66.9764 17.2508C67.1264 16.9507 67.2765 16.6356 67.4265 16.3055C67.5766 15.9754 67.7191 15.6341 67.8542 15.2815C67.9967 14.9289 68.1205 14.5875 68.2255 14.2574H67.1002V13.2108H68.2818V11.2527L69.2608 11.2977V13.2108H70.1949V14.2574H69.2608V15.3152L69.4071 15.1239C69.5272 15.229 69.651 15.3415 69.7785 15.4615C69.9136 15.5816 70.0448 15.7054 70.1724 15.8329C71.0352 15.4578 71.7779 14.9926 72.4006 14.4375H70.3975V13.4922H71.6691C71.6016 13.3871 71.5191 13.2671 71.4215 13.132C71.324 12.9895 71.2227 12.8507 71.1177 12.7157C71.0127 12.5731 70.9076 12.4381 70.8026 12.3105C70.7051 12.183 70.615 12.0742 70.5325 11.9842L71.219 11.399C71.3015 11.489 71.3953 11.5978 71.5003 11.7253C71.6053 11.8454 71.7104 11.9767 71.8154 12.1192C71.9279 12.2543 72.033 12.3931 72.1305 12.5356C72.2355 12.6706 72.3256 12.7944 72.4006 12.907L71.7254 13.4922H72.8395V11.2414L73.8636 11.2865V13.4922H74.8539L74.2349 12.9407C74.325 12.8507 74.4262 12.7419 74.5388 12.6144C74.6513 12.4868 74.7638 12.3555 74.8764 12.2205C74.9889 12.078 75.0977 11.9392 75.2027 11.8041C75.3078 11.6691 75.3978 11.549 75.4728 11.444L76.2043 11.9842C76.1293 12.0967 76.0392 12.2205 75.9342 12.3555C75.8367 12.4906 75.7316 12.6256 75.6191 12.7607C75.5141 12.8957 75.4053 13.027 75.2928 13.1545C75.1877 13.2821 75.0902 13.3946 75.0002 13.4922H76.5194V14.4375H74.325C74.9927 15.0151 75.8854 15.5103 77.0033 15.9229L76.6544 16.9245C76.0693 16.6844 75.5516 16.4293 75.1014 16.1592C74.6513 15.8892 74.2387 15.5816 73.8636 15.2365V16.4406H72.8395V15.2927C72.5394 15.5853 72.2055 15.8629 71.8379 16.1255C71.4778 16.3881 71.0539 16.6394 70.5663 16.8795L70.3637 16.4293L69.9023 16.9695ZM73.1883 16.5531C73.1508 16.6507 73.1133 16.7482 73.0758 16.8457C73.0383 16.9357 73.0008 17.0295 72.9633 17.1271H76.7557V18.1286H75.5178C75.3903 18.4287 75.2515 18.7026 75.1014 18.9501C74.9589 19.1902 74.7863 19.4153 74.5838 19.6253L76.6657 20.4919L76.2043 21.4034C75.7842 21.2083 75.3678 21.017 74.9552 20.8295C74.55 20.6494 74.1411 20.4694 73.7285 20.2893C73.3159 20.5369 72.8057 20.7582 72.198 20.9533C71.5978 21.1483 70.8589 21.3396 69.9811 21.5272L69.6435 20.5256C70.3037 20.4056 70.8664 20.2893 71.3315 20.1768C71.8042 20.0567 72.2093 19.9329 72.5469 19.8054C72.2318 19.6704 71.9167 19.5391 71.6016 19.4115C71.2865 19.284 70.9714 19.1564 70.6563 19.0289C70.7538 18.8864 70.8514 18.7401 70.9489 18.59C71.0464 18.44 71.1402 18.2862 71.2302 18.1286H70.0036V17.1271H71.8042C71.8792 16.977 71.9467 16.8345 72.0067 16.6994C72.0742 16.5569 72.1343 16.4218 72.1868 16.2943L73.1883 16.5531ZM72.4569 18.1286C72.4043 18.2187 72.3518 18.3087 72.2993 18.3987C72.2543 18.4887 72.2055 18.575 72.153 18.6575C72.3481 18.7326 72.5656 18.8188 72.8057 18.9164C73.0533 19.0064 73.3159 19.1077 73.5935 19.2202C73.766 19.0702 73.9123 18.9051 74.0324 18.7251C74.1599 18.545 74.2762 18.3462 74.3812 18.1286H72.4569Z" fill="#123871"/>
<path d="M48.6901 31.2635H51.5928V35.0607H50.6526V34.723H46.8189V35.079H45.8788V31.437C45.757 31.4978 45.6293 31.5587 45.4954 31.6195C45.3676 31.6804 45.2307 31.7443 45.0846 31.8112L44.6921 31.0353C45.1911 30.8406 45.5927 30.6398 45.897 30.4329C46.2013 30.2199 46.4234 29.9582 46.5633 29.6479H44.8838V28.9268H45.5684L44.9933 28.4887C45.2246 28.1966 45.4284 27.8801 45.6049 27.5394C45.7875 27.1986 45.9274 26.8943 46.0248 26.6266L46.7915 26.9004C46.7611 26.9917 46.7246 27.089 46.682 27.1925C46.6394 27.2899 46.5938 27.3903 46.5451 27.4937H48.8362V28.2148H47.5674C47.5613 28.3304 47.5583 28.443 47.5583 28.5525C47.5583 28.656 47.5552 28.7412 47.5492 28.8081V28.9268H49.0187V29.6479H47.4579C47.4579 29.6601 47.4548 29.6692 47.4488 29.6753C47.5826 29.7422 47.7256 29.8152 47.8778 29.8943C48.0299 29.9735 48.1759 30.0556 48.3159 30.1408C48.4619 30.2199 48.5958 30.299 48.7175 30.3781C48.8453 30.4572 48.9518 30.5272 49.037 30.5881L48.6901 31.2635ZM52.2683 27.4207V30.7798H49.2104V27.4207H52.2683ZM46.7276 28.9268V28.8446C46.7337 28.7655 46.7368 28.6712 46.7368 28.5617C46.7368 28.4461 46.7368 28.3304 46.7368 28.2148H46.1617C46.0887 28.3365 46.0126 28.4582 45.9335 28.5799C45.8544 28.6956 45.7723 28.8112 45.6871 28.9268H46.7276ZM51.4376 28.2239H50.0411V29.9582H51.4376V28.2239ZM47.1567 30.3964C47.0471 30.5668 46.9132 30.7219 46.755 30.8619C46.5968 30.9958 46.4051 31.1297 46.18 31.2635H48.4985C48.3037 31.1175 48.0847 30.9684 47.8412 30.8163C47.5978 30.658 47.3696 30.5181 47.1567 30.3964ZM50.6526 32.012H46.8189V32.6236H50.6526V32.012ZM50.6526 33.9745V33.3538H46.8189V33.9745H50.6526ZM55.1105 29.438C54.8001 29.7544 54.4411 30.086 54.0334 30.4329L53.6318 29.6296C54.1125 29.2037 54.5506 28.7442 54.9462 28.2513C55.3478 27.7523 55.6977 27.2442 55.9959 26.727L56.7809 27.083C56.6531 27.3203 56.5253 27.5424 56.3975 27.7493C56.2758 27.9562 56.148 28.154 56.0141 28.3426V31.6013H55.1105V29.438ZM56.0324 29.511C56.3427 29.4197 56.6379 29.3254 56.9178 29.228C57.1977 29.1306 57.4685 29.0302 57.7302 28.9268V26.8456L58.643 26.8821V28.5252C59.0385 28.3365 59.4158 28.1357 59.7748 27.9227C60.1339 27.7097 60.4898 27.4815 60.8428 27.2381L61.2809 28.0323C60.8671 28.3244 60.4442 28.5921 60.0122 28.8355C59.5801 29.0728 59.1237 29.298 58.643 29.511V30.0678C58.643 30.2747 58.6825 30.4086 58.7616 30.4694C58.8407 30.5303 58.9685 30.5729 59.145 30.5972C59.4675 30.6337 59.7809 30.6337 60.0852 30.5972C60.2008 30.585 60.2921 30.5698 60.359 30.5516C60.432 30.5272 60.4898 30.4998 60.5324 30.4694C60.575 30.439 60.6085 30.3994 60.6328 30.3507C60.6572 30.296 60.6785 30.229 60.6967 30.1499C60.7211 30.0465 60.7363 29.9522 60.7424 29.867C60.7546 29.7757 60.7667 29.6753 60.7789 29.5657L61.6004 29.8578C61.5882 29.9613 61.573 30.0617 61.5548 30.1591C61.5426 30.2564 61.5243 30.3538 61.5 30.4512C61.4513 30.6459 61.4026 30.8041 61.354 30.9258C61.3053 31.0475 61.2353 31.1479 61.144 31.227C61.0588 31.3 60.9462 31.3548 60.8063 31.3913C60.6663 31.4217 60.4868 31.4461 60.2677 31.4643C60.0243 31.4826 59.7718 31.4917 59.5101 31.4917C59.2545 31.4917 59.005 31.4826 58.7616 31.4643C58.5852 31.4522 58.433 31.4278 58.3052 31.3913C58.1774 31.3548 58.071 31.297 57.9858 31.2179C57.9006 31.1327 57.8367 31.0232 57.7941 30.8893C57.7515 30.7493 57.7302 30.5729 57.7302 30.3599V29.8852C57.505 29.9704 57.2768 30.0556 57.0456 30.1408C56.8143 30.2199 56.5709 30.299 56.3154 30.3781L56.0324 29.511ZM61.7099 33.2169H58.1957V35.1155H57.2647V33.2169H53.7413V32.3224H57.2647V31.4187L58.1957 31.4552V32.3224H61.7099V33.2169ZM69.5268 32.7696V35.0516H68.6414V32.8609L65.7023 33.1621L65.6384 32.3224L65.5562 32.4136C65.4649 32.2919 65.3554 32.152 65.2276 31.9938C65.1059 31.8355 64.9842 31.6865 64.8625 31.5465V35.079H64.0501V31.7291C63.8797 32.0759 63.7002 32.4076 63.5116 32.724C63.329 33.0343 63.1495 33.3143 62.973 33.5638L62.3797 32.8883C62.6535 32.511 62.9304 32.085 63.2103 31.6104C63.4903 31.1357 63.7337 30.655 63.9406 30.1682H62.7996V29.301H64.0501V28.3061C63.8432 28.3426 63.6424 28.3761 63.4477 28.4065C63.2529 28.4369 63.0734 28.4643 62.9091 28.4887L62.827 27.6489C63.046 27.6245 63.2894 27.5911 63.5572 27.5485C63.8249 27.4998 64.0957 27.4481 64.3696 27.3933C64.6495 27.3385 64.9233 27.2807 65.1911 27.2199C65.4588 27.1529 65.7023 27.089 65.9213 27.0282L66.0856 27.8588C65.9091 27.9075 65.7175 27.9562 65.5106 28.0049C65.3037 28.0536 65.0876 28.1022 64.8625 28.1509V29.301H66.0035V30.1682H64.8625V30.8163L65.0816 30.6155C65.1485 30.6824 65.2246 30.7645 65.3098 30.8619C65.401 30.9593 65.4923 31.0627 65.5836 31.1723C65.681 31.2818 65.7753 31.3913 65.8666 31.5009C65.9639 31.6104 66.0491 31.7138 66.1221 31.8112L65.7023 32.2585L68.6414 31.9573V26.8365L69.5268 26.873V31.8568L70.6952 31.7382L70.75 32.6418L69.5268 32.7696ZM67.8564 29.5657C67.753 29.4562 67.6343 29.3375 67.5004 29.2098C67.3666 29.0759 67.2297 28.945 67.0897 28.8173C66.9497 28.6834 66.8128 28.5586 66.6789 28.443C66.5451 28.3274 66.4294 28.2331 66.3321 28.16L66.8797 27.5028C66.9893 27.588 67.111 27.6884 67.2449 27.8041C67.3848 27.9197 67.5248 28.0414 67.6647 28.1692C67.8047 28.2909 67.9386 28.4156 68.0664 28.5434C68.2003 28.6651 68.3189 28.7747 68.4224 28.872L67.8564 29.5657ZM66.6059 29.6662C66.7154 29.7513 66.8372 29.8487 66.971 29.9582C67.111 30.0678 67.2509 30.1834 67.3909 30.3051C67.5309 30.4268 67.6708 30.5485 67.8108 30.6702C67.9508 30.7919 68.0755 30.9075 68.185 31.0171L67.61 31.7382C67.5004 31.6347 67.3757 31.5191 67.2357 31.3913C67.1019 31.2635 66.9619 31.1357 66.8159 31.008C66.6759 30.8802 66.539 30.7615 66.4051 30.652C66.2712 30.5363 66.1556 30.439 66.0582 30.3599L66.6059 29.6662ZM79.4158 35.3254C78.8803 35.0759 78.4026 34.8325 77.9827 34.5952C77.5689 34.3579 77.1946 34.0962 76.86 33.8102C76.5314 34.0536 76.1541 34.2879 75.7281 34.5131C75.3082 34.7443 74.8153 34.9877 74.2494 35.2433L73.793 34.2849C74.2859 34.0901 74.7271 33.8985 75.1165 33.7098C75.506 33.5212 75.8559 33.3234 76.1662 33.1165C75.7403 32.6175 75.3721 31.9907 75.0618 31.2361L75.8285 30.8163H74.6875V29.94H76.4492V28.8355H74.6784V27.9684H76.4492V26.7726L77.3711 26.8091V27.9684H79.4523V28.8355H77.3711V29.94H79.005V30.8436C78.8103 31.3366 78.6003 31.7747 78.3752 32.1581C78.1561 32.5414 77.8853 32.8944 77.5628 33.2169C77.8427 33.4299 78.1592 33.6277 78.5121 33.8102C78.865 33.9867 79.2758 34.154 79.7444 34.3122L79.4158 35.3254ZM74.6328 31.2088C74.511 31.2574 74.3711 31.3153 74.2129 31.3822C74.0547 31.443 73.8843 31.5069 73.7017 31.5739V34.0567C73.7017 34.2514 73.6835 34.4066 73.6469 34.5222C73.6165 34.6378 73.5587 34.7291 73.4735 34.796C73.3944 34.869 73.2879 34.9208 73.154 34.9512C73.0262 34.9816 72.8619 35.009 72.6611 35.0334L72.2595 35.079L71.9765 34.1206L72.3873 34.0841C72.4664 34.078 72.5333 34.0688 72.5881 34.0567C72.6429 34.0445 72.6824 34.0262 72.7068 34.0019C72.7372 33.9715 72.7585 33.9319 72.7707 33.8832C72.7828 33.8285 72.7889 33.7585 72.7889 33.6733V31.9025C72.5698 31.9816 72.3629 32.0546 72.1682 32.1216C71.9735 32.1824 71.8122 32.2311 71.6844 32.2676L71.4197 31.2818C71.578 31.2331 71.7788 31.1723 72.0222 31.0992C72.2656 31.0201 72.5212 30.9349 72.7889 30.8436V29.2919H71.8305V28.3426H72.7889V26.8274L73.7017 26.8639V28.3426H74.4867V29.2919H73.7017V30.515C73.8234 30.4664 73.939 30.4207 74.0486 30.3781C74.1642 30.3355 74.2676 30.296 74.3589 30.2595L74.6328 31.2088ZM75.8468 30.8163C75.9928 31.1631 76.1449 31.4826 76.3032 31.7747C76.4675 32.0607 76.6561 32.3254 76.8691 32.5688C77.1429 32.3132 77.3742 32.0455 77.5628 31.7656C77.7514 31.4796 77.9066 31.1631 78.0283 30.8163H75.8468ZM83.0247 31.5009C82.9578 31.4157 82.8756 31.3244 82.7783 31.227C82.687 31.1236 82.5957 31.0232 82.5044 30.9258V35.0972H81.7103V31.2361C81.5825 31.5708 81.4425 31.8934 81.2904 32.2037C81.1444 32.5141 80.9983 32.794 80.8523 33.0435L80.3046 32.3498C80.4141 32.1733 80.5297 31.9664 80.6515 31.7291C80.7732 31.4856 80.8949 31.2301 81.0166 30.9623C81.1383 30.6946 81.2539 30.4177 81.3634 30.1317C81.479 29.8457 81.5795 29.5688 81.6646 29.301H80.7519V28.4521H81.7103V26.8639L82.5044 26.9004V28.4521H83.262V29.301H82.5044V30.1591L82.6231 30.0039C82.7204 30.0891 82.8208 30.1804 82.9243 30.2777C83.0338 30.3751 83.1403 30.4755 83.2438 30.5789C83.9436 30.2747 84.546 29.8974 85.0511 29.4471H83.4263V28.6803H84.4578C84.403 28.5951 84.3361 28.4978 84.257 28.3882C84.1779 28.2726 84.0957 28.16 84.0105 28.0505C83.9253 27.9349 83.8401 27.8254 83.7549 27.7219C83.6758 27.6185 83.6028 27.5302 83.5359 27.4572L84.0927 26.9826C84.1596 27.0556 84.2357 27.1438 84.3209 27.2473C84.4061 27.3446 84.4913 27.4511 84.5764 27.5667C84.6677 27.6763 84.7529 27.7888 84.832 27.9045C84.9172 28.014 84.9902 28.1144 85.0511 28.2057L84.5034 28.6803H85.4071V26.8548L86.2377 26.8913V28.6803H87.041L86.5389 28.2331C86.612 28.16 86.6941 28.0718 86.7854 27.9684C86.8767 27.8649 86.968 27.7584 87.0592 27.6489C87.1505 27.5333 87.2387 27.4207 87.3239 27.3112C87.4091 27.2016 87.4822 27.1043 87.543 27.0191L88.1363 27.4572C88.0755 27.5485 88.0024 27.6489 87.9173 27.7584C87.8381 27.868 87.753 27.9775 87.6617 28.087C87.5765 28.1966 87.4882 28.3031 87.397 28.4065C87.3118 28.51 87.2327 28.6012 87.1596 28.6803H88.3919V29.4471H86.612C87.1536 29.9156 87.8777 30.3173 88.7844 30.652L88.5014 31.4643C88.0268 31.2696 87.6069 31.0627 87.2418 30.8436C86.8767 30.6246 86.542 30.3751 86.2377 30.0952V31.0718H85.4071V30.1408C85.1637 30.3781 84.8929 30.6033 84.5947 30.8163C84.3026 31.0292 83.9588 31.2331 83.5633 31.4278L83.3989 31.0627L83.0247 31.5009ZM85.69 31.1631C85.6596 31.2422 85.6292 31.3213 85.5988 31.4005C85.5683 31.4735 85.5379 31.5495 85.5075 31.6286H88.5836V32.441H87.5795C87.4761 32.6844 87.3635 32.9066 87.2418 33.1074C87.1262 33.3021 86.9862 33.4847 86.8219 33.655L88.5106 34.3579L88.1363 35.0972C87.7955 34.939 87.4578 34.7839 87.1231 34.6317C86.7945 34.4857 86.4629 34.3396 86.1282 34.1936C85.7935 34.3944 85.3797 34.5739 84.8868 34.7321C84.4 34.8903 83.8006 35.0455 83.0886 35.1977L82.8148 34.3853C83.3503 34.2879 83.8067 34.1936 84.1839 34.1023C84.5673 34.0049 84.8959 33.9045 85.1698 33.8011C84.9142 33.6916 84.6586 33.5851 84.403 33.4816C84.1474 33.3782 83.8919 33.2747 83.6363 33.1713C83.7154 33.0556 83.7945 32.937 83.8736 32.8153C83.9527 32.6936 84.0288 32.5688 84.1018 32.441H83.1069V31.6286H84.5673C84.6282 31.5069 84.6829 31.3913 84.7316 31.2818C84.7864 31.1662 84.8351 31.0566 84.8777 30.9532L85.69 31.1631ZM85.0967 32.441C85.0541 32.5141 85.0115 32.5871 84.9689 32.6601C84.9324 32.7331 84.8929 32.8031 84.8503 32.87C85.0085 32.9309 85.185 33.0009 85.3797 33.08C85.5805 33.153 85.7935 33.2352 86.0187 33.3264C86.1586 33.2047 86.2773 33.0709 86.3746 32.9248C86.4781 32.7788 86.5724 32.6175 86.6576 32.441H85.0967Z" fill="#3A5A8A"/>
<defs>
<linearGradient id="paint0_linear_674_33974" x1="90.883" y1="-0.181216" x2="10.9381" y2="40.7406" gradientUnits="userSpaceOnUse">
<stop offset="0.5" stop-color="#809AF5"/>
<stop offset="0.5" stop-color="#3867E2"/>
</linearGradient>
</defs>
</svg>
