<svg width="98" height="63" viewBox="0 0 98 63" fill="none" xmlns="http://www.w3.org/2000/svg">
<path d="M43.7327 49H18.1234C16.9185 49 16.4255 51.5313 17.4808 52.1129C23.2953 55.3178 28.407 59.71 30.2653 61.3828C30.6827 61.7585 31.3259 61.7478 31.7316 61.3595C33.5166 59.651 38.4263 55.2043 44.3415 51.9712C45.3929 51.3966 44.9309 49 43.7327 49Z" fill="#4573E7"/>
<rect width="97.4886" height="53.6492" rx="26.8246" fill="url(#paint0_linear_674_34016)"/>
<rect x="4.86819" y="4.86823" width="87.7521" height="43.9128" rx="21.9564" fill="#D6DFF5"/>
<path d="M22.9238 13.8246H38.8126C39.3873 13.8246 39.9384 14.0529 40.3447 14.4592C40.751 14.8656 40.9793 15.4167 40.9793 15.9913V37.658C40.9793 38.2326 40.751 38.7837 40.3447 39.19C39.9384 39.5964 39.3873 39.8246 38.8126 39.8246H22.9238C22.3491 39.8246 21.798 39.5964 21.3917 39.19C20.9854 38.7837 20.7571 38.2326 20.7571 37.658V15.9913C20.7571 15.4167 20.9854 14.8656 21.3917 14.4592C21.798 14.0529 22.3491 13.8246 22.9238 13.8246ZM22.9238 15.9913V37.658H38.8126V15.9913H22.9238ZM36.646 31.5191C36.646 31.8064 36.5318 32.082 36.3287 32.2851C36.1255 32.4883 35.85 32.6024 35.5626 32.6024H30.5071C30.2198 32.6024 29.9442 32.4883 29.7411 32.2851C29.5379 32.082 29.4238 31.8064 29.4238 31.5191C29.4238 31.2318 29.5379 30.9562 29.7411 30.7531C29.9442 30.5499 30.2198 30.4358 30.5071 30.4358H35.5626C35.85 30.4358 36.1255 30.5499 36.3287 30.7531C36.5318 30.9562 36.646 31.2318 36.646 31.5191ZM43.8682 38.7413C43.8682 39.0286 43.7541 39.3042 43.5509 39.5073C43.3477 39.7105 43.0722 39.8246 42.7849 39.8246H18.9515C18.6642 39.8246 18.3887 39.7105 18.1855 39.5073C17.9823 39.3042 17.8682 39.0286 17.8682 38.7413C17.8682 38.454 17.9823 38.1784 18.1855 37.9753C18.3887 37.7721 18.6642 37.658 18.9515 37.658H42.7849C43.0722 37.658 43.3477 37.7721 43.5509 37.9753C43.7541 38.1784 43.8682 38.454 43.8682 38.7413ZM27.2571 18.158H34.4793C35.0539 18.158 35.605 18.3863 36.0114 18.7926C36.4177 19.1989 36.646 19.75 36.646 20.3246V23.9358C36.646 24.5104 36.4177 25.0615 36.0114 25.4678C35.605 25.8742 35.0539 26.1024 34.4793 26.1024H27.2571C26.6824 26.1024 26.1313 25.8742 25.725 25.4678C25.3187 25.0615 25.0904 24.5104 25.0904 23.9358V20.3246C25.0904 19.75 25.3187 19.1989 25.725 18.7926C26.1313 18.3863 26.6824 18.158 27.2571 18.158ZM27.2571 20.3246V23.9358H34.4793V20.3246H27.2571Z" fill="#5578F6"/>
<path d="M57.6143 15.7952V16.7962H61.8393V23.4912C61.8393 23.8119 61.8177 24.0676 61.7743 24.2582C61.731 24.4576 61.653 24.6136 61.5403 24.7262C61.4277 24.8389 61.2803 24.9169 61.0983 24.9602C60.9163 25.0122 60.6823 25.0556 60.3963 25.0902L59.4603 25.1942L59.0703 23.9722L59.9153 23.8812C60.0627 23.8639 60.1753 23.8466 60.2533 23.8292C60.34 23.8119 60.405 23.7816 60.4483 23.7382C60.4917 23.6862 60.5177 23.6212 60.5263 23.5432C60.5437 23.4566 60.5523 23.3439 60.5523 23.2052V17.9922H58.5763L59.4083 18.4992C59.313 18.6466 59.1917 18.8199 59.0443 19.0192C58.9057 19.2099 58.7627 19.4006 58.6153 19.5912H60.0063V20.6052H57.5493V21.5542H60.2533V22.5682H57.5493V24.7522H56.3013V22.5682H53.6363V21.5542H56.3013V20.6052H53.8833V19.5912H55.3003C55.1703 19.4006 55.0317 19.2099 54.8843 19.0192C54.737 18.8199 54.6113 18.6596 54.5073 18.5382L55.1963 17.9922H53.3113V24.9862H52.0503V16.7962H56.3273V15.7952H51.2703V14.5862H56.3273V13.3512L57.6143 13.4032V14.5862H62.6323V15.7952H57.6143ZM57.2763 19.5912C57.4757 19.3399 57.6707 19.0712 57.8613 18.7852C58.052 18.4992 58.2253 18.2349 58.3813 17.9922H55.4823C55.5603 18.0876 55.6427 18.1916 55.7293 18.3042C55.8247 18.4169 55.9157 18.5339 56.0023 18.6552C56.0977 18.7679 56.1843 18.8806 56.2623 18.9932C56.3403 19.0972 56.401 19.1839 56.4443 19.2532L56.1063 19.5912H57.2763ZM70.3441 16.2632C70.2401 16.1246 70.1014 15.9599 69.9281 15.7692C69.7634 15.5699 69.5901 15.3706 69.4081 15.1712C69.2261 14.9719 69.0441 14.7812 68.8621 14.5992C68.6801 14.4172 68.5241 14.2656 68.3941 14.1442L69.2521 13.2342C69.3907 13.3382 69.5511 13.4726 69.7331 13.6372C69.9151 13.8019 70.0971 13.9796 70.2791 14.1702C70.4697 14.3522 70.6517 14.5386 70.8251 14.7292C70.9984 14.9112 71.1457 15.0716 71.2671 15.2102L70.3441 16.2632ZM75.9471 23.7512C76.1551 23.7426 76.3197 23.7252 76.4411 23.6992C76.5624 23.6732 76.6534 23.6299 76.7141 23.5692C76.7834 23.4999 76.8267 23.4089 76.8441 23.2962C76.8701 23.1749 76.8831 23.0146 76.8831 22.8152V15.4312H71.5531V14.1962H78.2221V23.2572C78.2221 23.6386 78.2004 23.9462 78.1571 24.1802C78.1137 24.4142 78.0271 24.5962 77.8971 24.7262C77.7757 24.8649 77.6024 24.9602 77.3771 25.0122C77.1604 25.0729 76.8701 25.1119 76.5061 25.1292L75.3751 25.1942L74.9721 23.8032L75.9471 23.7512ZM68.0691 15.7302L69.3691 15.7822V24.9732H68.0691V15.7302Z" fill="#123871"/>
<path d="M53.1393 40.891C52.8313 40.891 52.5527 40.88 52.3033 40.858C52.0613 40.836 51.8157 40.7993 51.5663 40.748V39.879C51.8523 39.9523 52.109 40.0037 52.3363 40.033C52.571 40.055 52.835 40.066 53.1283 40.066C53.4437 40.066 53.7297 40.0403 53.9863 39.989C54.2503 39.9303 54.474 39.8387 54.6573 39.714C54.8407 39.582 54.9837 39.4133 55.0863 39.208C55.189 38.9953 55.2403 38.7313 55.2403 38.416C55.2403 37.844 55.0717 37.4297 54.7343 37.173C54.4043 36.909 53.8433 36.777 53.0513 36.777C52.846 36.777 52.6113 36.7953 52.3473 36.832C52.0833 36.8613 51.8303 36.898 51.5883 36.942L52.1053 33.147H55.6693V34.005H52.8533L52.5343 36.095C52.6737 36.073 52.813 36.0583 52.9523 36.051C53.0917 36.0363 53.2493 36.029 53.4253 36.029C54.3127 36.029 54.9947 36.2123 55.4713 36.579C55.948 36.9457 56.1863 37.536 56.1863 38.35C56.1863 38.8047 56.113 39.1933 55.9663 39.516C55.827 39.8313 55.6253 40.0917 55.3613 40.297C55.0973 40.5023 54.7747 40.6527 54.3933 40.748C54.0193 40.8433 53.6013 40.891 53.1393 40.891ZM65.6485 35.314H59.0155V32.487H65.6485V35.314ZM64.8235 33.191H59.8515V34.61H64.8235V33.191ZM60.4565 37.019L60.2365 38.163H65.5165C65.5091 38.2437 65.4981 38.3793 65.4835 38.57C65.4761 38.7533 65.4615 38.9513 65.4395 39.164C65.4248 39.3693 65.4101 39.5673 65.3955 39.758C65.3808 39.9413 65.3698 40.0697 65.3625 40.143C65.3331 40.4657 65.2781 40.726 65.1975 40.924C65.1241 41.122 64.9995 41.2797 64.8235 41.397C64.6475 41.5143 64.4055 41.5987 64.0975 41.65C63.7895 41.7013 63.3898 41.7417 62.8985 41.771L61.9415 41.826L61.6775 40.99L62.8655 40.946C63.2028 40.9313 63.4705 40.9093 63.6685 40.88C63.8738 40.8507 64.0315 40.803 64.1415 40.737C64.2515 40.6637 64.3285 40.5647 64.3725 40.44C64.4165 40.3153 64.4458 40.154 64.4605 39.956C64.4678 39.8973 64.4751 39.8203 64.4825 39.725C64.4971 39.6297 64.5081 39.5343 64.5155 39.439C64.5301 39.3363 64.5411 39.2373 64.5485 39.142C64.5631 39.0467 64.5705 38.966 64.5705 38.9H59.1585L59.5325 37.019H57.5085V36.293H67.1775V37.019H60.4565ZM69.6786 31.948C69.7959 32.0433 69.9316 32.1643 70.0856 32.311C70.2469 32.4577 70.4083 32.6117 70.5696 32.773C70.7309 32.9343 70.8849 33.0957 71.0316 33.257C71.1783 33.411 71.2993 33.5467 71.3946 33.664L70.8336 34.39C70.7383 34.2507 70.6173 34.093 70.4706 33.917C70.3313 33.741 70.1809 33.5687 70.0196 33.4C69.8656 33.2313 69.7116 33.07 69.5576 32.916C69.4036 32.762 69.2679 32.6373 69.1506 32.542L69.6786 31.948ZM77.3786 40.231C77.3786 40.5317 77.3529 40.77 77.3016 40.946C77.2576 41.1293 77.1769 41.2687 77.0596 41.364C76.9496 41.4667 76.7956 41.5363 76.5976 41.573C76.4069 41.617 76.1649 41.6537 75.8716 41.683L74.9146 41.771L74.6506 40.902L75.6076 40.836C75.8056 40.8213 75.9633 40.803 76.0806 40.781C76.2053 40.759 76.3006 40.7187 76.3666 40.66C76.4326 40.594 76.4766 40.506 76.4986 40.396C76.5206 40.286 76.5316 40.1357 76.5316 39.945V33.51H71.8346V32.707H77.3786V40.231ZM69.8106 34.005V41.727H68.9966V33.961L69.8106 34.005Z" fill="#3A5A8A"/>
<defs>
<linearGradient id="paint0_linear_674_34016" x1="85.5573" y1="-0.214136" x2="4.12054" y2="32.9956" gradientUnits="userSpaceOnUse">
<stop offset="0.5" stop-color="#809AF5"/>
<stop offset="0.5" stop-color="#3867E2"/>
</linearGradient>
</defs>
</svg>
